<svg width="22" height="20" viewBox="0 0 22 20" fill="none" xmlns="http://www.w3.org/2000/svg">
<path d="M1 19H21" stroke="white" stroke-width="1.5" stroke-linecap="round" stroke-linejoin="round"/>
<path d="M1 19H21" stroke="url(#paint0_linear_735_979)" stroke-width="1.5" stroke-linecap="round" stroke-linejoin="round"/>
<path d="M1 14.4V1.6C1 1.44087 1.06321 1.28826 1.17574 1.17574C1.28826 1.06321 1.44087 1 1.6 1H20.4C20.5591 1 20.7117 1.06321 20.8243 1.17574C20.9368 1.28826 21 1.44087 21 1.6V14.4C21 14.5591 20.9368 14.7117 20.8243 14.8243C20.7117 14.9368 20.5591 15 20.4 15H1.6C1.44087 15 1.28826 14.9368 1.17574 14.8243C1.06321 14.7117 1 14.5591 1 14.4V14.4Z" stroke="white" stroke-width="1.5"/>
<path d="M1 14.4V1.6C1 1.44087 1.06321 1.28826 1.17574 1.17574C1.28826 1.06321 1.44087 1 1.6 1H20.4C20.5591 1 20.7117 1.06321 20.8243 1.17574C20.9368 1.28826 21 1.44087 21 1.6V14.4C21 14.5591 20.9368 14.7117 20.8243 14.8243C20.7117 14.9368 20.5591 15 20.4 15H1.6C1.44087 15 1.28826 14.9368 1.17574 14.8243C1.06321 14.7117 1 14.5591 1 14.4V14.4Z" stroke="url(#paint1_linear_735_979)" stroke-width="1.5"/>
<defs>
<linearGradient id="paint0_linear_735_979" x1="1" y1="19.4118" x2="20.9958" y2="19.705" gradientUnits="userSpaceOnUse">
<stop offset="0.139519" stop-color="#F2ECFF"/>
<stop offset="1" stop-color="#EAF7FF"/>
</linearGradient>
<linearGradient id="paint1_linear_735_979" x1="1" y1="6.76471" x2="21.0001" y2="6.78565" gradientUnits="userSpaceOnUse">
<stop offset="0.139519" stop-color="#F2ECFF"/>
<stop offset="1" stop-color="#EAF7FF"/>
</linearGradient>
</defs>
</svg>
