<svg width="540" height="622" viewBox="0 0 540 622" fill="none" xmlns="http://www.w3.org/2000/svg">
<g opacity="0.5" filter="url(#filter0_d_735_2274)">
<ellipse cx="270" cy="481.304" rx="265" ry="134.696" fill="url(#paint0_linear_735_2274)" fill-opacity="0.5" shape-rendering="crispEdges"/>
<path d="M534.529 481.304C534.529 518.229 505.073 551.78 457.17 576.129C409.293 600.464 343.119 615.529 270 615.529C196.881 615.529 130.707 600.464 82.8299 576.129C34.9272 551.78 5.47059 518.229 5.47059 481.304C5.47059 444.379 34.9272 410.827 82.8299 386.479C130.707 362.144 196.881 347.078 270 347.078C343.119 347.078 409.293 362.144 457.17 386.479C505.073 410.827 534.529 444.379 534.529 481.304Z" stroke="url(#paint1_linear_735_2274)" stroke-opacity="0.6" stroke-width="0.941174" shape-rendering="crispEdges"/>
</g>
<g opacity="0.7" filter="url(#filter1_d_735_2274)">
<ellipse cx="269.99" cy="455.092" rx="139.126" ry="74.9745" fill="url(#paint2_linear_735_2274)" fill-opacity="0.5" shape-rendering="crispEdges"/>
<path d="M408.646 455.092C408.646 475.54 393.259 494.159 368.144 507.693C343.048 521.217 308.347 529.596 269.99 529.596C231.634 529.596 196.933 521.217 171.837 507.693C146.722 494.159 131.335 475.54 131.335 455.092C131.335 434.645 146.722 416.026 171.837 402.492C196.933 388.968 231.634 380.589 269.99 380.589C308.347 380.589 343.048 388.968 368.144 402.492C393.259 416.026 408.646 434.645 408.646 455.092Z" stroke="url(#paint3_linear_735_2274)" stroke-opacity="0.6" stroke-width="0.941174" shape-rendering="crispEdges"/>
</g>
<g opacity="0.9" filter="url(#filter2_d_735_2274)">
<ellipse cx="269.992" cy="439.59" rx="100.065" ry="50.5536" fill="url(#paint4_linear_735_2274)" fill-opacity="0.5" shape-rendering="crispEdges"/>
<path d="M369.586 439.59C369.586 453.279 358.593 465.795 340.536 474.917C322.507 484.026 297.566 489.673 269.992 489.673C242.417 489.673 217.477 484.026 199.447 474.917C181.39 465.795 170.397 453.279 170.397 439.59C170.397 425.902 181.39 413.386 199.447 404.263C217.477 395.155 242.417 389.507 269.992 389.507C297.566 389.507 322.507 395.155 340.536 404.263C358.593 413.386 369.586 425.902 369.586 439.59Z" stroke="url(#paint5_linear_735_2274)" stroke-opacity="0.6" stroke-width="0.941174" shape-rendering="crispEdges"/>
</g>
<path d="M300.195 465.621L339.167 432.107L300.195 395.089L239.764 395.089L200.793 432.107L239.764 465.621L300.195 465.621Z" fill="url(#paint6_radial_735_2274)" fill-opacity="0.5"/>
<path opacity="0.3" d="M230.133 343.31L309.858 343.31L269.995 208.259L230.133 343.31Z" fill="url(#paint7_linear_735_2274)"/>
<path d="M309.863 436.386L361.278 392.172L309.863 343.335L230.139 343.335L178.724 392.172L230.139 436.386L309.863 436.386Z" fill="url(#paint8_radial_735_2274)" fill-opacity="0.6"/>
<path d="M230.133 436.36L309.858 436.36L269.991 208.259L230.133 436.36Z" fill="url(#paint9_linear_735_2274)" fill-opacity="0.9"/>
<g opacity="0.6">
<path d="M270.001 208.254L309.868 436.359L361.283 392.145L270.001 208.254Z" fill="url(#paint10_linear_735_2274)"/>
<path d="M270.001 208.254L309.868 436.359L361.283 392.145L270.001 208.254Z" fill="url(#paint11_linear_735_2274)"/>
</g>
<g opacity="0.7">
<path d="M270.001 208.254L309.868 436.359L361.283 392.145L270.001 208.254Z" fill="url(#paint12_linear_735_2274)"/>
<path d="M270.001 208.254L309.868 436.359L361.283 392.145L270.001 208.254Z" fill="url(#paint13_linear_735_2274)"/>
</g>
<path d="M269.974 208.254L230.107 436.359L178.692 392.145L269.974 208.254Z" fill="url(#paint14_linear_735_2274)" fill-opacity="0.9"/>
<path d="M269.974 208.254L230.107 436.359L178.692 392.145L269.974 208.254Z" fill="url(#paint15_linear_735_2274)" fill-opacity="0.6"/>
<path d="M269.974 208.254L230.107 436.359L178.692 392.145L269.974 208.254Z" fill="url(#paint16_radial_735_2274)" fill-opacity="0.8" style="mix-blend-mode:lighten"/>
<path d="M269.974 208.254L230.148 343.465L178.692 392.145L269.974 208.254Z" fill="url(#paint17_linear_735_2274)" fill-opacity="0.9"/>
<path d="M269.974 208.254L230.148 343.465L178.692 392.145L269.974 208.254Z" fill="url(#paint18_linear_735_2274)" fill-opacity="0.6"/>
<path d="M269.974 208.254L230.148 343.465L178.692 392.145L269.974 208.254Z" fill="url(#paint19_radial_735_2274)" fill-opacity="0.8" style="mix-blend-mode:lighten"/>
<path d="M269.974 208.254L230.107 436.359L178.692 392.145L269.974 208.254Z" fill="url(#paint20_linear_735_2274)" fill-opacity="0.7"/>
<path d="M269.974 208.254L230.107 436.359L178.692 392.145L269.974 208.254Z" fill="url(#paint21_radial_735_2274)" fill-opacity="0.4"/>
<path d="M269.974 208.254L230.107 436.359L178.692 392.145L269.974 208.254Z" fill="url(#paint22_radial_735_2274)" fill-opacity="0.2"/>
<path d="M269.974 208.254L230.107 436.359L178.692 392.145L269.974 208.254Z" fill="url(#paint23_radial_735_2274)" fill-opacity="0.6"/>
<rect x="319.97" y="70.491" width="7.57142" height="200.093" rx="3.78571" fill="url(#paint24_linear_735_2274)"/>
<rect x="359.341" y="114.475" width="6.81429" height="229.651" rx="3.40714" fill="url(#paint25_linear_735_2274)"/>
<rect x="236.683" y="60.623" width="3.02858" height="165.227" rx="1.51429" fill="url(#paint26_linear_735_2274)"/>
<rect opacity="0.5" x="190.496" y="177.368" width="9.08569" height="150.827" rx="4.54284" fill="url(#paint27_linear_735_2274)"/>
<rect width="2.08397" height="2.08397" transform="matrix(0.706742 0.707471 -0.706742 0.707471 296.583 211.695)" fill="#2260FF"/>
<rect width="2.08397" height="2.08397" transform="matrix(0.706742 0.707471 -0.706742 0.707471 342.704 235.721)" fill="#2260FF"/>
<rect width="2.08397" height="2.08397" transform="matrix(0.706742 0.707471 -0.706742 0.707471 166.325 263.553)" fill="#2260FF"/>
<rect width="2.08397" height="2.08397" transform="matrix(0.706742 0.707471 -0.706742 0.707471 246.239 144.595)" fill="#2260FF"/>
<rect width="2.08397" height="2.08397" transform="matrix(0.706742 0.707471 -0.706742 0.707471 263.637 118.291)" fill="#2260FF"/>
<rect width="2.08397" height="2.08397" transform="matrix(0.706742 0.707471 -0.706742 0.707471 303.604 120.882)" fill="#2260FF"/>
<rect width="1.34859" height="1.34859" transform="matrix(0.706742 0.707471 -0.706742 0.707471 280.006 191.019)" fill="#2260FF"/>
<rect width="1.34859" height="1.34859" transform="matrix(0.706742 0.707471 -0.706742 0.707471 183.187 140.033)" fill="#2260FF"/>
<rect width="1.34859" height="1.34859" transform="matrix(0.706742 0.707471 -0.706742 0.707471 291.88 177.421)" fill="#2260FF"/>
<rect width="1.34859" height="1.34859" transform="matrix(0.706742 0.707471 -0.706742 0.707471 335.235 138.309)" fill="#2260FF"/>
<rect width="1.34859" height="1.34859" transform="matrix(0.706742 0.707471 -0.706742 0.707471 336.1 296.595)" fill="#2260FF"/>
<rect opacity="0.2" width="3.11389" height="3.11389" transform="matrix(0.706742 0.707471 -0.706742 0.707471 315.302 163.328)" fill="#2260FF"/>
<rect opacity="0.4" width="1.34859" height="1.34859" transform="matrix(0.706742 0.707471 -0.706742 0.707471 272.391 166.144)" fill="#2260FF"/>
<rect width="1.34859" height="1.34859" transform="matrix(0.706742 0.707471 -0.706742 0.707471 229.177 194.272)" fill="#2260FF"/>
<rect width="1.34859" height="1.34859" transform="matrix(0.706742 0.707471 -0.706742 0.707471 173.628 187.885)" fill="#2260FF"/>
<rect width="1.34859" height="1.34859" transform="matrix(0.706742 0.707471 -0.706742 0.707471 211.382 160.593)" fill="#2260FF"/>
<rect opacity="0.4" width="3.407" height="3.407" transform="matrix(0.706742 0.707471 -0.706742 0.707471 214.744 223.253)" fill="#2260FF"/>
<rect opacity="0.4" width="3.407" height="3.407" transform="matrix(0.706742 0.707471 -0.706742 0.707471 307.148 248.742)" fill="#2260FF"/>
<rect opacity="0.8" width="0.946184" height="0.946184" transform="matrix(0.706742 0.707471 -0.706742 0.707471 256.757 210.575)" fill="#2260FF"/>
<rect opacity="0.8" width="0.946184" height="0.946184" transform="matrix(0.706742 0.707471 -0.706742 0.707471 217.654 258.332)" fill="#2260FF"/>
<mask id="mask0_735_2274" style="mask-type:alpha" maskUnits="userSpaceOnUse" x="59" y="530" width="73" height="70">
<rect opacity="0.4" x="59.7644" y="530.045" width="71.5461" height="69.3671" fill="url(#paint28_linear_735_2274)"/>
</mask>
<g mask="url(#mask0_735_2274)">
<path d="M95.5291 511.755L131.302 530.082L95.5337 594.68L95.5291 511.755Z" fill="url(#paint29_linear_735_2274)" fill-opacity="0.6"/>
<path d="M95.5304 548.414L59.7364 530.043L95.5349 594.68L95.5304 548.414Z" fill="url(#paint30_linear_735_2274)"/>
</g>
<g style="mix-blend-mode:lighten" filter="url(#filter3_f_735_2274)">
<ellipse cx="95.6766" cy="529.704" rx="57.6505" ry="25.6278" fill="url(#paint31_radial_735_2274)" fill-opacity="0.3"/>
</g>
<path d="M95.5364 511.702L131.309 530.029L95.5363 548.357L59.7633 530.029L95.5364 511.702Z" fill="url(#paint32_linear_735_2274)"/>
<path d="M95.5323 548.337L131.305 530.009L95.5369 465.411L95.5323 548.337Z" fill="url(#paint33_linear_735_2274)" fill-opacity="0.8"/>
<path d="M95.5292 548.336L59.7352 530.048L95.5337 465.411L95.5292 548.336Z" fill="url(#paint34_linear_735_2274)"/>
<path d="M95.5292 548.336L59.7352 530.048L95.5337 465.411L95.5292 548.336Z" fill="url(#paint35_linear_735_2274)" fill-opacity="0.5"/>
<mask id="mask1_735_2274" style="mask-type:alpha" maskUnits="userSpaceOnUse" x="408" y="530" width="72" height="70">
<rect opacity="0.4" x="408.371" y="530.044" width="71.5461" height="69.3671" fill="url(#paint36_linear_735_2274)"/>
</mask>
<g mask="url(#mask1_735_2274)">
<path d="M444.14 511.755L479.913 530.082L444.144 594.68L444.14 511.755Z" fill="url(#paint37_linear_735_2274)" fill-opacity="0.6"/>
<path d="M444.141 548.414L408.348 530.043L444.146 594.68L444.141 548.414Z" fill="url(#paint38_linear_735_2274)"/>
</g>
<g style="mix-blend-mode:lighten" filter="url(#filter4_f_735_2274)">
<ellipse cx="444.283" cy="529.704" rx="57.6505" ry="25.6278" fill="url(#paint39_radial_735_2274)" fill-opacity="0.3"/>
</g>
<path d="M444.143 511.702L479.916 530.03L444.143 548.357L408.37 530.03L444.143 511.702Z" fill="url(#paint40_linear_735_2274)"/>
<path d="M444.138 548.337L479.911 530.009L444.143 465.411L444.138 548.337Z" fill="url(#paint41_linear_735_2274)" fill-opacity="0.8"/>
<path d="M444.135 548.336L408.341 530.048L444.139 465.411L444.135 548.336Z" fill="url(#paint42_linear_735_2274)"/>
<path d="M444.135 548.336L408.341 530.048L444.139 465.411L444.135 548.336Z" fill="url(#paint43_linear_735_2274)" fill-opacity="0.5"/>
<mask id="mask2_735_2274" style="mask-type:alpha" maskUnits="userSpaceOnUse" x="111" y="393" width="48" height="47">
<rect opacity="0.4" x="111.025" y="393.504" width="47.8938" height="46.4351" fill="url(#paint44_linear_735_2274)"/>
</mask>
<g mask="url(#mask2_735_2274)">
<path d="M134.968 381.225L158.915 393.493L134.971 436.736L134.968 381.225Z" fill="url(#paint45_linear_735_2274)" fill-opacity="0.6"/>
<path d="M134.968 405.765L111.007 393.467L134.971 436.736L134.968 405.765Z" fill="url(#paint46_linear_735_2274)"/>
</g>
<g style="mix-blend-mode:lighten" filter="url(#filter5_f_735_2274)">
<ellipse cx="135.073" cy="393.252" rx="38.592" ry="17.1555" fill="url(#paint47_radial_735_2274)" fill-opacity="0.3"/>
</g>
<path d="M134.981 381.195L158.928 393.464L134.981 405.732L111.035 393.464L134.981 381.195Z" fill="url(#paint48_linear_735_2274)"/>
<path d="M134.978 405.739L158.925 393.47L134.981 350.227L134.978 405.739Z" fill="url(#paint49_linear_735_2274)" fill-opacity="0.8"/>
<path d="M134.982 405.737L111.021 393.494L134.985 350.226L134.982 405.737Z" fill="url(#paint50_linear_735_2274)"/>
<path d="M134.982 405.737L111.021 393.494L134.985 350.226L134.982 405.737Z" fill="url(#paint51_linear_735_2274)" fill-opacity="0.5"/>
<mask id="mask3_735_2274" style="mask-type:alpha" maskUnits="userSpaceOnUse" x="380" y="393" width="49" height="47">
<rect opacity="0.4" x="380.865" y="393.504" width="47.8938" height="46.4351" fill="url(#paint52_linear_735_2274)"/>
</mask>
<g mask="url(#mask3_735_2274)">
<path d="M404.799 381.225L428.746 393.494L404.802 436.736L404.799 381.225Z" fill="url(#paint53_linear_735_2274)" fill-opacity="0.6"/>
<path d="M404.801 405.766L380.84 393.468L404.804 436.736L404.801 405.766Z" fill="url(#paint54_linear_735_2274)"/>
</g>
<g style="mix-blend-mode:lighten" filter="url(#filter6_f_735_2274)">
<ellipse cx="404.893" cy="393.252" rx="38.592" ry="17.1555" fill="url(#paint55_radial_735_2274)" fill-opacity="0.3"/>
</g>
<path d="M404.795 381.193L428.742 393.462L404.795 405.73L380.848 393.462L404.795 381.193Z" fill="url(#paint56_linear_735_2274)"/>
<path d="M404.792 405.737L428.739 393.469L404.795 350.226L404.792 405.737Z" fill="url(#paint57_linear_735_2274)" fill-opacity="0.8"/>
<path d="M404.799 405.739L380.838 393.496L404.802 350.227L404.799 405.739Z" fill="url(#paint58_linear_735_2274)"/>
<path opacity="0.7" d="M154.763 70.491L161.93 75.2871L154.763 80.0833L147.596 75.2871L154.763 70.491Z" fill="url(#paint59_linear_735_2274)"/>
<path d="M147.596 137.806L154.763 142.602L154.763 80.0599L147.596 75.2638L147.596 137.806Z" fill="url(#paint60_linear_735_2274)"/>
<path d="M161.934 137.806L154.77 142.602L154.77 80.0599L161.934 75.2638L161.934 137.806Z" fill="url(#paint61_linear_735_2274)"/>
<path opacity="0.7" d="M450.162 195.753L459.121 201.749L450.162 207.744L441.203 201.749L450.162 195.753Z" fill="url(#paint62_linear_735_2274)"/>
<path d="M441.203 279.907L450.162 285.902L450.162 207.724L441.203 201.729L441.203 279.907Z" fill="url(#paint63_linear_735_2274)"/>
<path d="M459.126 279.907L450.171 285.902L450.172 207.724L459.126 201.729L459.126 279.907Z" fill="url(#paint64_linear_735_2274)"/>
<path opacity="0.7" d="M66.463 198.611L81.2452 208.503L66.463 218.395L51.6809 208.503L66.463 198.611Z" fill="url(#paint65_linear_735_2274)"/>
<path d="M51.6809 337.467L66.463 347.359L66.4633 218.365L51.6811 208.473L51.6809 337.467Z" fill="url(#paint66_linear_735_2274)"/>
<path d="M81.2372 337.467L66.4619 347.359L66.4621 218.365L81.2374 208.473L81.2372 337.467Z" fill="url(#paint67_linear_735_2274)"/>
<defs>
<filter id="filter0_d_735_2274" x="0.294131" y="342.843" width="539.412" height="278.804" filterUnits="userSpaceOnUse" color-interpolation-filters="sRGB">
<feFlood flood-opacity="0" result="BackgroundImageFix"/>
<feColorMatrix in="SourceAlpha" type="matrix" values="0 0 0 0 0 0 0 0 0 0 0 0 0 0 0 0 0 0 127 0" result="hardAlpha"/>
<feOffset dy="0.941174"/>
<feGaussianBlur stdDeviation="2.35293"/>
<feComposite in2="hardAlpha" operator="out"/>
<feColorMatrix type="matrix" values="0 0 0 0 0.369333 0 0 0 0 0.0916667 0 0 0 0 0.5 0 0 0 0.15 0"/>
<feBlend mode="normal" in2="BackgroundImageFix" result="effect1_dropShadow_735_2274"/>
<feBlend mode="normal" in="SourceGraphic" in2="effect1_dropShadow_735_2274" result="shape"/>
</filter>
<filter id="filter1_d_735_2274" x="126.159" y="376.353" width="287.663" height="159.361" filterUnits="userSpaceOnUse" color-interpolation-filters="sRGB">
<feFlood flood-opacity="0" result="BackgroundImageFix"/>
<feColorMatrix in="SourceAlpha" type="matrix" values="0 0 0 0 0 0 0 0 0 0 0 0 0 0 0 0 0 0 127 0" result="hardAlpha"/>
<feOffset dy="0.941174"/>
<feGaussianBlur stdDeviation="2.35293"/>
<feComposite in2="hardAlpha" operator="out"/>
<feColorMatrix type="matrix" values="0 0 0 0 0.369333 0 0 0 0 0.0916667 0 0 0 0 0.5 0 0 0 0.15 0"/>
<feBlend mode="normal" in2="BackgroundImageFix" result="effect1_dropShadow_735_2274"/>
<feBlend mode="normal" in="SourceGraphic" in2="effect1_dropShadow_735_2274" result="shape"/>
</filter>
<filter id="filter2_d_735_2274" x="165.22" y="385.272" width="209.543" height="110.519" filterUnits="userSpaceOnUse" color-interpolation-filters="sRGB">
<feFlood flood-opacity="0" result="BackgroundImageFix"/>
<feColorMatrix in="SourceAlpha" type="matrix" values="0 0 0 0 0 0 0 0 0 0 0 0 0 0 0 0 0 0 127 0" result="hardAlpha"/>
<feOffset dy="0.941174"/>
<feGaussianBlur stdDeviation="2.35293"/>
<feComposite in2="hardAlpha" operator="out"/>
<feColorMatrix type="matrix" values="0 0 0 0 0.369333 0 0 0 0 0.0916667 0 0 0 0 0.5 0 0 0 0.15 0"/>
<feBlend mode="normal" in2="BackgroundImageFix" result="effect1_dropShadow_735_2274"/>
<feBlend mode="normal" in="SourceGraphic" in2="effect1_dropShadow_735_2274" result="shape"/>
</filter>
<filter id="filter3_f_735_2274" x="17.323" y="483.373" width="156.707" height="92.6618" filterUnits="userSpaceOnUse" color-interpolation-filters="sRGB">
<feFlood flood-opacity="0" result="BackgroundImageFix"/>
<feBlend mode="normal" in="SourceGraphic" in2="BackgroundImageFix" result="shape"/>
<feGaussianBlur stdDeviation="10.3515" result="effect1_foregroundBlur_735_2274"/>
</filter>
<filter id="filter4_f_735_2274" x="365.929" y="483.373" width="156.707" height="92.6618" filterUnits="userSpaceOnUse" color-interpolation-filters="sRGB">
<feFlood flood-opacity="0" result="BackgroundImageFix"/>
<feBlend mode="normal" in="SourceGraphic" in2="BackgroundImageFix" result="shape"/>
<feGaussianBlur stdDeviation="10.3515" result="effect1_foregroundBlur_735_2274"/>
</filter>
<filter id="filter5_f_735_2274" x="75.7784" y="355.393" width="118.59" height="75.7172" filterUnits="userSpaceOnUse" color-interpolation-filters="sRGB">
<feFlood flood-opacity="0" result="BackgroundImageFix"/>
<feBlend mode="normal" in="SourceGraphic" in2="BackgroundImageFix" result="shape"/>
<feGaussianBlur stdDeviation="10.3515" result="effect1_foregroundBlur_735_2274"/>
</filter>
<filter id="filter6_f_735_2274" x="345.597" y="355.394" width="118.59" height="75.7172" filterUnits="userSpaceOnUse" color-interpolation-filters="sRGB">
<feFlood flood-opacity="0" result="BackgroundImageFix"/>
<feBlend mode="normal" in="SourceGraphic" in2="BackgroundImageFix" result="shape"/>
<feGaussianBlur stdDeviation="10.3515" result="effect1_foregroundBlur_735_2274"/>
</filter>
<linearGradient id="paint0_linear_735_2274" x1="27.3919" y1="558.124" x2="484.179" y2="437.104" gradientUnits="userSpaceOnUse">
<stop stop-color="#7CB8FF" stop-opacity="0.45"/>
<stop offset="1" stop-color="#5653FF" stop-opacity="0"/>
</linearGradient>
<linearGradient id="paint1_linear_735_2274" x1="181.709" y1="626.126" x2="357.955" y2="348.908" gradientUnits="userSpaceOnUse">
<stop stop-color="white"/>
<stop offset="1" stop-color="white" stop-opacity="0"/>
</linearGradient>
<linearGradient id="paint2_linear_735_2274" x1="163.642" y1="494.504" x2="312.228" y2="347.343" gradientUnits="userSpaceOnUse">
<stop stop-color="#76A5FF"/>
<stop offset="0.645488" stop-color="#5653FF" stop-opacity="0.15"/>
<stop offset="0.975722" stop-color="#5653FF" stop-opacity="0"/>
</linearGradient>
<linearGradient id="paint3_linear_735_2274" x1="197.069" y1="558.621" x2="342.97" y2="382.312" gradientUnits="userSpaceOnUse">
<stop stop-color="white"/>
<stop offset="1" stop-color="#5BFFF5" stop-opacity="0"/>
</linearGradient>
<linearGradient id="paint4_linear_735_2274" x1="193.501" y1="466.164" x2="293.543" y2="360.474" gradientUnits="userSpaceOnUse">
<stop stop-color="#99E0FF"/>
<stop offset="0.645488" stop-color="#5653FF" stop-opacity="0.15"/>
<stop offset="0.975722" stop-color="#5653FF" stop-opacity="0"/>
</linearGradient>
<linearGradient id="paint5_linear_735_2274" x1="217.544" y1="509.397" x2="314.547" y2="384.36" gradientUnits="userSpaceOnUse">
<stop stop-color="white"/>
<stop offset="1" stop-color="#5BFFF5" stop-opacity="0"/>
</linearGradient>
<radialGradient id="paint6_radial_735_2274" cx="0" cy="0" r="1" gradientUnits="userSpaceOnUse" gradientTransform="translate(269.98 430.355) rotate(-180) scale(102.448 52.2199)">
<stop stop-color="#6D61FF"/>
<stop offset="1" stop-color="#95D2FF"/>
</radialGradient>
<linearGradient id="paint7_linear_735_2274" x1="309.86" y1="439.34" x2="204.894" y2="458.143" gradientUnits="userSpaceOnUse">
<stop stop-color="white" stop-opacity="0.83"/>
<stop offset="0.509498" stop-color="#4786FF" stop-opacity="0.8"/>
<stop offset="1" stop-color="#6D61FF" stop-opacity="0.5"/>
</linearGradient>
<radialGradient id="paint8_radial_735_2274" cx="0" cy="0" r="1" gradientUnits="userSpaceOnUse" gradientTransform="translate(270.001 389.86) rotate(-180) scale(135.158 68.8927)">
<stop stop-color="#8061FF"/>
<stop offset="1" stop-color="#8054FF"/>
</radialGradient>
<linearGradient id="paint9_linear_735_2274" x1="295.545" y1="502.355" x2="418.407" y2="413.733" gradientUnits="userSpaceOnUse">
<stop offset="0.0729167" stop-color="#4B86FA" stop-opacity="0.8"/>
<stop offset="0.51972" stop-color="#A6E8FC" stop-opacity="0.71"/>
<stop offset="0.969868" stop-color="white"/>
</linearGradient>
<linearGradient id="paint10_linear_735_2274" x1="320.787" y1="260.737" x2="236.347" y2="313.64" gradientUnits="userSpaceOnUse">
<stop offset="0.0729167" stop-color="#4B86FA" stop-opacity="0.8"/>
<stop offset="0.687497" stop-color="#A6F7FC" stop-opacity="0.8"/>
<stop offset="1" stop-color="white"/>
</linearGradient>
<linearGradient id="paint11_linear_735_2274" x1="364.719" y1="391.642" x2="314.368" y2="390.187" gradientUnits="userSpaceOnUse">
<stop stop-color="white"/>
<stop offset="0.461543" stop-color="white" stop-opacity="0.358036"/>
<stop offset="1" stop-color="white" stop-opacity="0"/>
</linearGradient>
<linearGradient id="paint12_linear_735_2274" x1="320.787" y1="260.737" x2="314.826" y2="424.107" gradientUnits="userSpaceOnUse">
<stop offset="0.0729167" stop-color="#4B86FA" stop-opacity="0"/>
<stop offset="0.58379" stop-color="#A6B9FC" stop-opacity="0.8"/>
<stop offset="0.840195" stop-color="#62FFD9" stop-opacity="0.897726"/>
<stop offset="1" stop-color="white"/>
</linearGradient>
<linearGradient id="paint13_linear_735_2274" x1="364.719" y1="391.642" x2="314.368" y2="390.187" gradientUnits="userSpaceOnUse">
<stop stop-color="white"/>
<stop offset="0.461543" stop-color="white" stop-opacity="0.358036"/>
<stop offset="1" stop-color="white" stop-opacity="0"/>
</linearGradient>
<linearGradient id="paint14_linear_735_2274" x1="164.456" y1="415.105" x2="312.356" y2="381.206" gradientUnits="userSpaceOnUse">
<stop offset="0.0729167" stop-color="#4B86FA" stop-opacity="0.8"/>
<stop offset="0.665013" stop-color="#A6C8FC" stop-opacity="0.8"/>
<stop offset="0.873663" stop-color="#67CBD1" stop-opacity="0.924572"/>
<stop offset="1" stop-color="#2963D3"/>
</linearGradient>
<linearGradient id="paint15_linear_735_2274" x1="232.953" y1="425.121" x2="209.055" y2="378.145" gradientUnits="userSpaceOnUse">
<stop stop-color="white"/>
<stop offset="1" stop-color="white" stop-opacity="0"/>
</linearGradient>
<radialGradient id="paint16_radial_735_2274" cx="0" cy="0" r="1" gradientUnits="userSpaceOnUse" gradientTransform="translate(182.201 390.268) rotate(164.07) scale(67.5701 101.88)">
<stop stop-color="white"/>
<stop offset="0.463542" stop-color="white" stop-opacity="0.246269"/>
<stop offset="0.697917" stop-color="white" stop-opacity="0"/>
</radialGradient>
<linearGradient id="paint17_linear_735_2274" x1="164.456" y1="415.105" x2="326.83" y2="377.644" gradientUnits="userSpaceOnUse">
<stop offset="0.0729167" stop-color="#9AFFF9" stop-opacity="0.8"/>
<stop offset="0.730317" stop-color="#A6BEFC" stop-opacity="0.8"/>
<stop offset="1" stop-color="#1C3E7E"/>
</linearGradient>
<linearGradient id="paint18_linear_735_2274" x1="232.953" y1="425.121" x2="209.055" y2="378.145" gradientUnits="userSpaceOnUse">
<stop stop-color="white"/>
<stop offset="1" stop-color="white" stop-opacity="0"/>
</linearGradient>
<radialGradient id="paint19_radial_735_2274" cx="0" cy="0" r="1" gradientUnits="userSpaceOnUse" gradientTransform="translate(182.201 390.269) rotate(164.07) scale(67.5701 101.88)">
<stop stop-color="white"/>
<stop offset="0.463542" stop-color="white" stop-opacity="0.246269"/>
<stop offset="0.697917" stop-color="white" stop-opacity="0"/>
</radialGradient>
<linearGradient id="paint20_linear_735_2274" x1="164.456" y1="415.105" x2="309.815" y2="381.846" gradientUnits="userSpaceOnUse">
<stop offset="0.0729167" stop-color="#4BBBFA" stop-opacity="0.15"/>
<stop offset="0.644297" stop-color="#5F6FFF" stop-opacity="0.5"/>
<stop offset="0.823972" stop-color="#5FFFCF" stop-opacity="0.5"/>
<stop offset="1" stop-color="#1C3E7E" stop-opacity="0"/>
</linearGradient>
<radialGradient id="paint21_radial_735_2274" cx="0" cy="0" r="1" gradientUnits="userSpaceOnUse" gradientTransform="translate(244.628 361.147) rotate(-28.3613) scale(82.1702 29.7375)">
<stop stop-color="#70A9FF"/>
<stop offset="1" stop-color="#80FFE8" stop-opacity="0"/>
</radialGradient>
<radialGradient id="paint22_radial_735_2274" cx="0" cy="0" r="1" gradientUnits="userSpaceOnUse" gradientTransform="translate(224.564 421.023) rotate(68.7107) scale(57.3472 143.05)">
<stop stop-color="#EEFFF7"/>
<stop offset="1" stop-color="white" stop-opacity="0"/>
</radialGradient>
<radialGradient id="paint23_radial_735_2274" cx="0" cy="0" r="1" gradientUnits="userSpaceOnUse" gradientTransform="translate(178.378 387.295) rotate(-12.9066) scale(32.2359 80.5466)">
<stop stop-color="#70FFE5"/>
<stop offset="1" stop-color="#43FFFF" stop-opacity="0"/>
</radialGradient>
<linearGradient id="paint24_linear_735_2274" x1="323.741" y1="79.5719" x2="323.741" y2="270.535" gradientUnits="userSpaceOnUse">
<stop offset="0.027939" stop-color="#84FFF8" stop-opacity="0"/>
<stop offset="0.149401" stop-color="#84A6FF" stop-opacity="0"/>
<stop offset="0.358067" stop-color="#84D3FF" stop-opacity="0.104383"/>
<stop offset="0.560503" stop-color="#84AEFF" stop-opacity="0.26"/>
<stop offset="0.807292" stop-color="#849FFF" stop-opacity="0.63"/>
<stop offset="1" stop-color="#DBF8FF" stop-opacity="0.56"/>
</linearGradient>
<linearGradient id="paint25_linear_735_2274" x1="362.735" y1="124.898" x2="362.735" y2="344.07" gradientUnits="userSpaceOnUse">
<stop offset="0.027939" stop-color="#84FFF8" stop-opacity="0"/>
<stop offset="0.149401" stop-color="#84A6FF" stop-opacity="0"/>
<stop offset="0.358067" stop-color="#84D3FF" stop-opacity="0.104383"/>
<stop offset="0.560503" stop-color="#84AEFF" stop-opacity="0.26"/>
<stop offset="0.807292" stop-color="#849FFF" stop-opacity="0.63"/>
<stop offset="1" stop-color="#DBF8FF" stop-opacity="0.56"/>
</linearGradient>
<linearGradient id="paint26_linear_735_2274" x1="238.192" y1="68.1217" x2="238.192" y2="225.81" gradientUnits="userSpaceOnUse">
<stop offset="0.027939" stop-color="#84FFF8" stop-opacity="0"/>
<stop offset="0.149401" stop-color="#84A6FF" stop-opacity="0"/>
<stop offset="0.358067" stop-color="#84D3FF" stop-opacity="0.104383"/>
<stop offset="0.560503" stop-color="#84AEFF" stop-opacity="0.26"/>
<stop offset="0.807292" stop-color="#849FFF" stop-opacity="0.63"/>
<stop offset="1" stop-color="#DBF8FF" stop-opacity="0.56"/>
</linearGradient>
<linearGradient id="paint27_linear_735_2274" x1="195.022" y1="184.213" x2="195.022" y2="328.159" gradientUnits="userSpaceOnUse">
<stop offset="0.027939" stop-color="#84FFF8" stop-opacity="0"/>
<stop offset="0.149401" stop-color="#84A6FF" stop-opacity="0"/>
<stop offset="0.358067" stop-color="#84D3FF" stop-opacity="0.104383"/>
<stop offset="0.560503" stop-color="#84AEFF" stop-opacity="0.26"/>
<stop offset="0.807292" stop-color="#849FFF" stop-opacity="0.63"/>
<stop offset="1" stop-color="#DBF8FF" stop-opacity="0.56"/>
</linearGradient>
<linearGradient id="paint28_linear_735_2274" x1="95.5375" y1="515.774" x2="95.5375" y2="586.257" gradientUnits="userSpaceOnUse">
<stop/>
<stop offset="0.461538" stop-opacity="0.361991"/>
<stop offset="0.674208" stop-opacity="0.127762"/>
<stop offset="1" stop-opacity="0"/>
</linearGradient>
<linearGradient id="paint29_linear_735_2274" x1="128.842" y1="520.182" x2="101.361" y2="596.657" gradientUnits="userSpaceOnUse">
<stop offset="0.170794" stop-color="#4B3BA9"/>
<stop offset="0.537799" stop-color="#7BDFFF" stop-opacity="0.8"/>
<stop offset="0.791667" stop-color="white"/>
</linearGradient>
<linearGradient id="paint30_linear_735_2274" x1="95.1118" y1="594.68" x2="70.2455" y2="527.804" gradientUnits="userSpaceOnUse">
<stop stop-color="#3DDCFF"/>
<stop offset="0.427083" stop-color="#5076FF" stop-opacity="0.5"/>
<stop offset="0.977116" stop-color="#78FFD7"/>
</linearGradient>
<radialGradient id="paint31_radial_735_2274" cx="0" cy="0" r="1" gradientUnits="userSpaceOnUse" gradientTransform="translate(95.6766 529.704) rotate(90) scale(25.6278 57.6505)">
<stop offset="0.0416667" stop-color="#A7EFFF"/>
<stop offset="0.447917" stop-color="#B1FFFF" stop-opacity="0.8"/>
<stop offset="1" stop-color="#6978FF" stop-opacity="0"/>
</radialGradient>
<linearGradient id="paint32_linear_735_2274" x1="113.423" y1="513.915" x2="81.3687" y2="549.494" gradientUnits="userSpaceOnUse">
<stop stop-color="#6083FF"/>
<stop offset="1" stop-color="#0C1E5E" stop-opacity="0"/>
</linearGradient>
<linearGradient id="paint33_linear_735_2274" x1="130.236" y1="531.93" x2="75.6195" y2="499.405" gradientUnits="userSpaceOnUse">
<stop offset="0.0888964" stop-color="#4B9EFF" stop-opacity="0.93"/>
<stop offset="0.603942" stop-color="#94FFF9" stop-opacity="0.99"/>
<stop offset="1" stop-color="white"/>
</linearGradient>
<linearGradient id="paint34_linear_735_2274" x1="95.9149" y1="467.301" x2="46.5871" y2="507.441" gradientUnits="userSpaceOnUse">
<stop stop-color="#3DDCFF"/>
<stop offset="0.427083" stop-color="#5076FF" stop-opacity="0.62"/>
<stop offset="0.627473" stop-color="#8B90FF" stop-opacity="0.57"/>
<stop offset="0.805569" stop-color="#A3FFF9" stop-opacity="0.757781"/>
<stop offset="0.977116" stop-color="#F8E2FF" stop-opacity="0.81"/>
</linearGradient>
<linearGradient id="paint35_linear_735_2274" x1="91.3132" y1="547.536" x2="80.6411" y2="511.15" gradientUnits="userSpaceOnUse">
<stop stop-color="#4AFFF4"/>
<stop offset="1" stop-color="#4AFFFF" stop-opacity="0"/>
</linearGradient>
<linearGradient id="paint36_linear_735_2274" x1="444.144" y1="515.774" x2="444.144" y2="586.257" gradientUnits="userSpaceOnUse">
<stop/>
<stop offset="0.461538" stop-opacity="0.361991"/>
<stop offset="0.674208" stop-opacity="0.127762"/>
<stop offset="1" stop-opacity="0"/>
</linearGradient>
<linearGradient id="paint37_linear_735_2274" x1="477.453" y1="520.182" x2="449.972" y2="596.657" gradientUnits="userSpaceOnUse">
<stop offset="0.170794" stop-color="#4B3BA9"/>
<stop offset="0.537799" stop-color="#7BDFFF" stop-opacity="0.8"/>
<stop offset="0.791667" stop-color="white"/>
</linearGradient>
<linearGradient id="paint38_linear_735_2274" x1="443.723" y1="594.68" x2="418.857" y2="527.803" gradientUnits="userSpaceOnUse">
<stop stop-color="#3DDCFF"/>
<stop offset="0.427083" stop-color="#5076FF" stop-opacity="0.5"/>
<stop offset="0.977116" stop-color="#78FFD7"/>
</linearGradient>
<radialGradient id="paint39_radial_735_2274" cx="0" cy="0" r="1" gradientUnits="userSpaceOnUse" gradientTransform="translate(444.283 529.704) rotate(90) scale(25.6278 57.6505)">
<stop offset="0.0416667" stop-color="#A7EFFF"/>
<stop offset="0.447917" stop-color="#B1FFFF" stop-opacity="0.8"/>
<stop offset="1" stop-color="#6978FF" stop-opacity="0"/>
</radialGradient>
<linearGradient id="paint40_linear_735_2274" x1="462.029" y1="513.915" x2="429.975" y2="549.494" gradientUnits="userSpaceOnUse">
<stop stop-color="#6083FF"/>
<stop offset="1" stop-color="#0C1E5E" stop-opacity="0"/>
</linearGradient>
<linearGradient id="paint41_linear_735_2274" x1="478.842" y1="531.93" x2="424.225" y2="499.405" gradientUnits="userSpaceOnUse">
<stop offset="0.0888964" stop-color="#4B9EFF" stop-opacity="0.93"/>
<stop offset="0.603942" stop-color="#94FFF9" stop-opacity="0.99"/>
<stop offset="1" stop-color="white"/>
</linearGradient>
<linearGradient id="paint42_linear_735_2274" x1="444.521" y1="467.301" x2="395.193" y2="507.441" gradientUnits="userSpaceOnUse">
<stop stop-color="#3DDCFF"/>
<stop offset="0.427083" stop-color="#5076FF" stop-opacity="0.62"/>
<stop offset="0.627473" stop-color="#8B90FF" stop-opacity="0.57"/>
<stop offset="0.805569" stop-color="#A3FFF9" stop-opacity="0.757781"/>
<stop offset="0.977116" stop-color="#F8E2FF" stop-opacity="0.81"/>
</linearGradient>
<linearGradient id="paint43_linear_735_2274" x1="439.919" y1="547.536" x2="429.247" y2="511.15" gradientUnits="userSpaceOnUse">
<stop stop-color="#4AFFF4"/>
<stop offset="1" stop-color="#4AFFFF" stop-opacity="0"/>
</linearGradient>
<linearGradient id="paint44_linear_735_2274" x1="134.972" y1="383.951" x2="134.972" y2="431.133" gradientUnits="userSpaceOnUse">
<stop/>
<stop offset="0.461538" stop-opacity="0.361991"/>
<stop offset="0.674208" stop-opacity="0.127762"/>
<stop offset="1" stop-opacity="0"/>
</linearGradient>
<linearGradient id="paint45_linear_735_2274" x1="157.268" y1="386.866" x2="138.872" y2="438.059" gradientUnits="userSpaceOnUse">
<stop offset="0.170794" stop-color="#4B3BA9"/>
<stop offset="0.537799" stop-color="#7BDFFF" stop-opacity="0.8"/>
<stop offset="0.791667" stop-color="white"/>
</linearGradient>
<linearGradient id="paint46_linear_735_2274" x1="134.687" y1="436.736" x2="118.042" y2="391.968" gradientUnits="userSpaceOnUse">
<stop stop-color="#3DDCFF"/>
<stop offset="0.427083" stop-color="#5076FF" stop-opacity="0.5"/>
<stop offset="0.977116" stop-color="#78FFD7"/>
</linearGradient>
<radialGradient id="paint47_radial_735_2274" cx="0" cy="0" r="1" gradientUnits="userSpaceOnUse" gradientTransform="translate(135.073 393.252) rotate(90) scale(17.1555 38.592)">
<stop offset="0.0416667" stop-color="#A7EFFF"/>
<stop offset="0.447917" stop-color="#B1FFFF" stop-opacity="0.8"/>
<stop offset="1" stop-color="#6978FF" stop-opacity="0"/>
</radialGradient>
<linearGradient id="paint48_linear_735_2274" x1="146.955" y1="382.676" x2="125.497" y2="406.493" gradientUnits="userSpaceOnUse">
<stop stop-color="#6083FF"/>
<stop offset="1" stop-color="#0C1E5E" stop-opacity="0"/>
</linearGradient>
<linearGradient id="paint49_linear_735_2274" x1="158.209" y1="394.756" x2="121.649" y2="372.983" gradientUnits="userSpaceOnUse">
<stop offset="0.0888964" stop-color="#4B9EFF" stop-opacity="0.93"/>
<stop offset="0.603942" stop-color="#94FFF9" stop-opacity="0.99"/>
<stop offset="1" stop-color="white"/>
</linearGradient>
<linearGradient id="paint50_linear_735_2274" x1="135.24" y1="351.491" x2="102.219" y2="378.361" gradientUnits="userSpaceOnUse">
<stop stop-color="#3DDCFF"/>
<stop offset="0.427083" stop-color="#5076FF" stop-opacity="0.62"/>
<stop offset="0.627473" stop-color="#8B90FF" stop-opacity="0.57"/>
<stop offset="0.805569" stop-color="#A3FFF9" stop-opacity="0.757781"/>
<stop offset="0.977116" stop-color="#F8E2FF" stop-opacity="0.81"/>
</linearGradient>
<linearGradient id="paint51_linear_735_2274" x1="132.16" y1="405.201" x2="125.016" y2="380.844" gradientUnits="userSpaceOnUse">
<stop stop-color="#4AFFF4"/>
<stop offset="1" stop-color="#4AFFFF" stop-opacity="0"/>
</linearGradient>
<linearGradient id="paint52_linear_735_2274" x1="404.812" y1="383.951" x2="404.812" y2="431.133" gradientUnits="userSpaceOnUse">
<stop/>
<stop offset="0.461538" stop-opacity="0.361991"/>
<stop offset="0.674208" stop-opacity="0.127762"/>
<stop offset="1" stop-opacity="0"/>
</linearGradient>
<linearGradient id="paint53_linear_735_2274" x1="427.099" y1="386.866" x2="408.703" y2="438.06" gradientUnits="userSpaceOnUse">
<stop offset="0.170794" stop-color="#4B3BA9"/>
<stop offset="0.537799" stop-color="#7BDFFF" stop-opacity="0.8"/>
<stop offset="0.791667" stop-color="white"/>
</linearGradient>
<linearGradient id="paint54_linear_735_2274" x1="404.52" y1="436.736" x2="387.875" y2="391.968" gradientUnits="userSpaceOnUse">
<stop stop-color="#3DDCFF"/>
<stop offset="0.427083" stop-color="#5076FF" stop-opacity="0.5"/>
<stop offset="0.977116" stop-color="#78FFD7"/>
</linearGradient>
<radialGradient id="paint55_radial_735_2274" cx="0" cy="0" r="1" gradientUnits="userSpaceOnUse" gradientTransform="translate(404.893 393.252) rotate(90) scale(17.1555 38.592)">
<stop offset="0.0416667" stop-color="#A7EFFF"/>
<stop offset="0.447917" stop-color="#B1FFFF" stop-opacity="0.8"/>
<stop offset="1" stop-color="#6978FF" stop-opacity="0"/>
</radialGradient>
<linearGradient id="paint56_linear_735_2274" x1="416.769" y1="382.675" x2="395.311" y2="406.492" gradientUnits="userSpaceOnUse">
<stop stop-color="#6083FF"/>
<stop offset="1" stop-color="#0C1E5E" stop-opacity="0"/>
</linearGradient>
<linearGradient id="paint57_linear_735_2274" x1="428.023" y1="394.754" x2="391.696" y2="369.044" gradientUnits="userSpaceOnUse">
<stop offset="0.0473646" stop-color="#3D3BA9"/>
<stop offset="0.537799" stop-color="#7BFFF7" stop-opacity="0.8"/>
<stop offset="0.791667" stop-color="white"/>
</linearGradient>
<linearGradient id="paint58_linear_735_2274" x1="405.057" y1="351.493" x2="372.036" y2="378.362" gradientUnits="userSpaceOnUse">
<stop stop-color="#3DDCFF"/>
<stop offset="0.427083" stop-color="#5076FF" stop-opacity="0.62"/>
<stop offset="0.627473" stop-color="#8B90FF" stop-opacity="0.57"/>
<stop offset="0.805569" stop-color="#A3FFF9" stop-opacity="0.757781"/>
<stop offset="0.977116" stop-color="#F8E2FF" stop-opacity="0.81"/>
</linearGradient>
<linearGradient id="paint59_linear_735_2274" x1="155.35" y1="80.7633" x2="154.124" y2="68.7184" gradientUnits="userSpaceOnUse">
<stop stop-color="white"/>
<stop offset="0.0001" stop-color="white"/>
<stop offset="0.448479" stop-color="#9896FF"/>
<stop offset="0.981226" stop-color="#6978FF" stop-opacity="0.76"/>
</linearGradient>
<linearGradient id="paint60_linear_735_2274" x1="155.962" y1="153.025" x2="136.015" y2="78.9506" gradientUnits="userSpaceOnUse">
<stop offset="0.155675" stop-color="#2FB4FF" stop-opacity="0"/>
<stop offset="0.587888" stop-color="#3317DE" stop-opacity="0.203265"/>
<stop offset="1" stop-color="#86B6FF" stop-opacity="0.78"/>
</linearGradient>
<linearGradient id="paint61_linear_735_2274" x1="166.804" y1="128.299" x2="134.754" y2="109.633" gradientUnits="userSpaceOnUse">
<stop stop-color="#2FB4FF" stop-opacity="0"/>
<stop offset="0.339878" stop-color="#3E1FFF" stop-opacity="0.1"/>
<stop offset="1" stop-color="#86FFF8" stop-opacity="0.47"/>
</linearGradient>
<linearGradient id="paint62_linear_735_2274" x1="450.896" y1="208.594" x2="449.363" y2="193.538" gradientUnits="userSpaceOnUse">
<stop stop-color="white"/>
<stop offset="0.0001" stop-color="white"/>
<stop offset="0.448479" stop-color="#9896FF"/>
<stop offset="0.981226" stop-color="#6978FF" stop-opacity="0.76"/>
</linearGradient>
<linearGradient id="paint63_linear_735_2274" x1="451.661" y1="298.931" x2="426.728" y2="206.337" gradientUnits="userSpaceOnUse">
<stop offset="0.155675" stop-color="#2FB4FF" stop-opacity="0"/>
<stop offset="0.587888" stop-color="#3317DE" stop-opacity="0.203265"/>
<stop offset="1" stop-color="#86B6FF" stop-opacity="0.78"/>
</linearGradient>
<linearGradient id="paint64_linear_735_2274" x1="465.214" y1="268.023" x2="425.151" y2="244.69" gradientUnits="userSpaceOnUse">
<stop stop-color="#2FB4FF" stop-opacity="0"/>
<stop offset="0.339878" stop-color="#3E1FFF" stop-opacity="0.1"/>
<stop offset="1" stop-color="#86FFF8" stop-opacity="0.47"/>
</linearGradient>
<linearGradient id="paint65_linear_735_2274" x1="62.2066" y1="220.64" x2="68.5285" y2="193.694" gradientUnits="userSpaceOnUse">
<stop stop-color="white"/>
<stop offset="0.0001" stop-color="white"/>
<stop offset="0.448479" stop-color="#96C0FF"/>
<stop offset="0.981226" stop-color="#69C9FF" stop-opacity="0.76"/>
</linearGradient>
<linearGradient id="paint66_linear_735_2274" x1="68.9372" y1="368.856" x2="27.7964" y2="216.077" gradientUnits="userSpaceOnUse">
<stop offset="0.155675" stop-color="#2FB4FF" stop-opacity="0"/>
<stop offset="0.587888" stop-color="#3317DE" stop-opacity="0.203265"/>
<stop offset="1" stop-color="#86B6FF" stop-opacity="0.78"/>
</linearGradient>
<linearGradient id="paint67_linear_735_2274" x1="91.2819" y1="317.858" x2="25.178" y2="279.359" gradientUnits="userSpaceOnUse">
<stop stop-color="#2FB4FF" stop-opacity="0"/>
<stop offset="0.339878" stop-color="#3E1FFF" stop-opacity="0.1"/>
<stop offset="1" stop-color="#86FFF8" stop-opacity="0.47"/>
</linearGradient>
</defs>
</svg>
