<svg width="302" height="345" viewBox="0 0 302 345" fill="none" xmlns="http://www.w3.org/2000/svg">
<g opacity="0.5" filter="url(#filter0_d_787_4391)">
<ellipse cx="150.836" cy="264.873" rx="145.836" ry="74.1265" fill="url(#paint0_linear_787_4391)" fill-opacity="0.5" shape-rendering="crispEdges"/>
<path d="M296.202 264.873C296.202 285.073 280.083 303.482 253.745 316.869C227.432 330.243 191.049 338.529 150.836 338.529C110.623 338.529 74.2399 330.243 47.9276 316.869C21.5893 303.482 5.47059 285.073 5.47059 264.873C5.47059 244.674 21.5893 226.265 47.9276 212.878C74.2399 199.503 110.623 191.218 150.836 191.218C191.049 191.218 227.432 199.503 253.745 212.878C280.083 226.265 296.202 244.674 296.202 264.873Z" stroke="url(#paint1_linear_787_4391)" stroke-opacity="0.6" stroke-width="0.941174" shape-rendering="crispEdges"/>
</g>
<g opacity="0.7" filter="url(#filter1_d_787_4391)">
<ellipse cx="150.832" cy="250.449" rx="76.5643" ry="41.2604" fill="url(#paint2_linear_787_4391)" fill-opacity="0.5" shape-rendering="crispEdges"/>
<path d="M226.926 250.449C226.926 261.587 218.542 271.777 204.748 279.21C190.974 286.633 171.913 291.239 150.832 291.239C129.752 291.239 110.691 286.633 96.9165 279.21C83.1231 271.777 74.7387 261.587 74.7387 250.449C74.7387 239.311 83.1231 229.121 96.9165 221.688C110.691 214.265 129.752 209.659 150.832 209.659C171.913 209.659 190.974 214.265 204.748 221.688C218.542 229.121 226.926 239.311 226.926 250.449Z" stroke="url(#paint3_linear_787_4391)" stroke-opacity="0.6" stroke-width="0.941174" shape-rendering="crispEdges"/>
</g>
<g opacity="0.9" filter="url(#filter2_d_787_4391)">
<ellipse cx="150.832" cy="241.917" rx="55.0685" ry="27.8209" fill="url(#paint4_linear_787_4391)" fill-opacity="0.5" shape-rendering="crispEdges"/>
<path d="M205.43 241.917C205.43 249.328 199.472 256.161 189.559 261.17C179.672 266.165 165.981 269.268 150.832 269.268C135.683 269.268 121.991 266.165 112.105 261.17C102.191 256.161 96.2338 249.328 96.2338 241.917C96.2338 234.507 102.191 227.674 112.105 222.665C121.991 217.67 135.683 214.567 150.832 214.567C165.981 214.567 179.672 217.67 189.559 222.665C199.472 227.674 205.43 234.507 205.43 241.917Z" stroke="url(#paint5_linear_787_4391)" stroke-opacity="0.6" stroke-width="0.941174" shape-rendering="crispEdges"/>
</g>
<path d="M167.452 256.243L188.899 237.8L167.452 217.428L134.196 217.428L112.749 237.8L134.196 256.243L167.452 256.243Z" fill="url(#paint6_radial_787_4391)" fill-opacity="0.5"/>
<path opacity="0.3" d="M128.895 188.932L172.769 188.932L150.832 114.61L128.895 188.932Z" fill="url(#paint7_linear_787_4391)"/>
<path d="M172.771 240.154L201.066 215.822L172.771 188.946L128.897 188.946L100.602 215.822L128.897 240.154L172.771 240.154Z" fill="url(#paint8_radial_787_4391)" fill-opacity="0.6"/>
<path d="M128.895 240.14L172.769 240.14L150.829 114.61L128.895 240.14Z" fill="url(#paint9_linear_787_4391)" fill-opacity="0.9"/>
<g opacity="0.6">
<path d="M150.833 114.607L172.773 240.139L201.068 215.807L150.833 114.607Z" fill="url(#paint10_linear_787_4391)"/>
<path d="M150.833 114.607L172.773 240.139L201.068 215.807L150.833 114.607Z" fill="url(#paint11_linear_787_4391)"/>
</g>
<g opacity="0.7">
<path d="M150.833 114.607L172.773 240.139L201.068 215.807L150.833 114.607Z" fill="url(#paint12_linear_787_4391)"/>
<path d="M150.833 114.607L172.773 240.139L201.068 215.807L150.833 114.607Z" fill="url(#paint13_linear_787_4391)"/>
</g>
<path d="M150.819 114.607L128.879 240.139L100.584 215.807L150.819 114.607Z" fill="url(#paint14_linear_787_4391)" fill-opacity="0.9"/>
<path d="M150.819 114.607L128.879 240.139L100.584 215.807L150.819 114.607Z" fill="url(#paint15_linear_787_4391)" fill-opacity="0.6"/>
<path d="M150.819 114.607L128.879 240.139L100.584 215.807L150.819 114.607Z" fill="url(#paint16_radial_787_4391)" fill-opacity="0.8" style="mix-blend-mode:lighten"/>
<path d="M150.819 114.607L128.901 189.017L100.584 215.807L150.819 114.607Z" fill="url(#paint17_linear_787_4391)" fill-opacity="0.9"/>
<path d="M150.819 114.607L128.901 189.017L100.584 215.807L150.819 114.607Z" fill="url(#paint18_linear_787_4391)" fill-opacity="0.6"/>
<path d="M150.819 114.607L128.901 189.017L100.584 215.807L150.819 114.607Z" fill="url(#paint19_radial_787_4391)" fill-opacity="0.8" style="mix-blend-mode:lighten"/>
<path d="M150.819 114.607L128.879 240.139L100.584 215.807L150.819 114.607Z" fill="url(#paint20_linear_787_4391)" fill-opacity="0.7"/>
<path d="M150.819 114.607L128.879 240.139L100.584 215.807L150.819 114.607Z" fill="url(#paint21_radial_787_4391)" fill-opacity="0.4"/>
<path d="M150.819 114.607L128.879 240.139L100.584 215.807L150.819 114.607Z" fill="url(#paint22_radial_787_4391)" fill-opacity="0.2"/>
<path d="M150.819 114.607L128.879 240.139L100.584 215.807L150.819 114.607Z" fill="url(#paint23_radial_787_4391)" fill-opacity="0.6"/>
<rect x="178.335" y="38.7931" width="4.16674" height="110.116" rx="2.08337" fill="url(#paint24_linear_787_4391)"/>
<rect x="200.004" y="62.9989" width="3.75007" height="126.383" rx="1.87504" fill="url(#paint25_linear_787_4391)"/>
<rect x="132.501" y="33.3628" width="1.6667" height="90.9286" rx="0.833351" fill="url(#paint26_linear_787_4391)"/>
<rect opacity="0.5" x="107.083" y="97.6097" width="5.00008" height="83.0038" rx="2.50004" fill="url(#paint27_linear_787_4391)"/>
<rect width="1.14686" height="1.14686" transform="matrix(0.706742 0.707471 -0.706742 0.707471 165.465 116.501)" fill="#2260FF"/>
<rect width="1.14686" height="1.14686" transform="matrix(0.706742 0.707471 -0.706742 0.707471 190.845 129.723)" fill="#2260FF"/>
<rect width="1.14686" height="1.14686" transform="matrix(0.706742 0.707471 -0.706742 0.707471 93.7817 145.04)" fill="#2260FF"/>
<rect width="1.14686" height="1.14686" transform="matrix(0.706742 0.707471 -0.706742 0.707471 137.761 79.574)" fill="#2260FF"/>
<rect width="1.14686" height="1.14686" transform="matrix(0.706742 0.707471 -0.706742 0.707471 147.335 65.0988)" fill="#2260FF"/>
<rect width="1.14686" height="1.14686" transform="matrix(0.706742 0.707471 -0.706742 0.707471 169.327 66.5247)" fill="#2260FF"/>
<rect width="0.742161" height="0.742161" transform="matrix(0.706742 0.707471 -0.706742 0.707471 156.342 105.123)" fill="#2260FF"/>
<rect width="0.742161" height="0.742161" transform="matrix(0.706742 0.707471 -0.706742 0.707471 103.061 77.0636)" fill="#2260FF"/>
<rect width="0.742161" height="0.742161" transform="matrix(0.706742 0.707471 -0.706742 0.707471 162.875 97.6395)" fill="#2260FF"/>
<rect width="0.742161" height="0.742161" transform="matrix(0.706742 0.707471 -0.706742 0.707471 186.734 76.1149)" fill="#2260FF"/>
<rect width="0.742161" height="0.742161" transform="matrix(0.706742 0.707471 -0.706742 0.707471 187.211 163.224)" fill="#2260FF"/>
<rect opacity="0.2" width="1.71365" height="1.71365" transform="matrix(0.706742 0.707471 -0.706742 0.707471 175.765 89.8839)" fill="#2260FF"/>
<rect opacity="0.4" width="0.742161" height="0.742161" transform="matrix(0.706742 0.707471 -0.706742 0.707471 152.15 91.4331)" fill="#2260FF"/>
<rect width="0.742161" height="0.742161" transform="matrix(0.706742 0.707471 -0.706742 0.707471 128.369 106.913)" fill="#2260FF"/>
<rect width="0.742161" height="0.742161" transform="matrix(0.706742 0.707471 -0.706742 0.707471 97.7993 103.398)" fill="#2260FF"/>
<rect width="0.742161" height="0.742161" transform="matrix(0.706742 0.707471 -0.706742 0.707471 118.577 88.3784)" fill="#2260FF"/>
<rect opacity="0.4" width="1.87496" height="1.87496" transform="matrix(0.706742 0.707471 -0.706742 0.707471 120.426 122.862)" fill="#2260FF"/>
<rect opacity="0.4" width="1.87496" height="1.87496" transform="matrix(0.706742 0.707471 -0.706742 0.707471 171.276 136.889)" fill="#2260FF"/>
<rect opacity="0.8" width="0.520709" height="0.520709" transform="matrix(0.706742 0.707471 -0.706742 0.707471 143.547 115.885)" fill="#2260FF"/>
<rect opacity="0.8" width="0.520709" height="0.520709" transform="matrix(0.706742 0.707471 -0.706742 0.707471 122.029 142.167)" fill="#2260FF"/>
<mask id="mask0_787_4391" style="mask-type:alpha" maskUnits="userSpaceOnUse" x="35" y="291" width="40" height="39">
<rect opacity="0.4" x="35.1411" y="291.696" width="39.3736" height="38.1744" fill="url(#paint28_linear_787_4391)"/>
</mask>
<g mask="url(#mask0_787_4391)">
<path d="M54.8197 281.631L74.5065 291.717L54.8223 327.267L54.8197 281.631Z" fill="url(#paint29_linear_787_4391)" fill-opacity="0.6"/>
<path d="M54.8208 301.806L35.1224 291.696L54.8232 327.267L54.8208 301.806Z" fill="url(#paint30_linear_787_4391)"/>
</g>
<g style="mix-blend-mode:lighten" filter="url(#filter3_f_787_4391)">
<ellipse cx="54.9003" cy="291.509" rx="31.7265" ry="14.1036" fill="url(#paint31_radial_787_4391)" fill-opacity="0.3"/>
</g>
<path d="M54.8252 281.602L74.512 291.689L54.8252 301.775L35.1384 291.688L54.8252 281.602Z" fill="url(#paint32_linear_787_4391)"/>
<path d="M54.8232 301.764L74.5099 291.678L54.8257 256.128L54.8232 301.764Z" fill="url(#paint33_linear_787_4391)" fill-opacity="0.8"/>
<path d="M54.8203 301.764L35.122 291.699L54.8228 256.128L54.8203 301.764Z" fill="url(#paint34_linear_787_4391)"/>
<path d="M54.8203 301.764L35.122 291.699L54.8228 256.128L54.8203 301.764Z" fill="url(#paint35_linear_787_4391)" fill-opacity="0.5"/>
<mask id="mask1_787_4391" style="mask-type:alpha" maskUnits="userSpaceOnUse" x="226" y="291" width="41" height="39">
<rect opacity="0.4" x="226.987" y="291.696" width="39.3736" height="38.1744" fill="url(#paint36_linear_787_4391)"/>
</mask>
<g mask="url(#mask1_787_4391)">
<path d="M246.671 281.632L266.358 291.718L246.674 327.268L246.671 281.632Z" fill="url(#paint37_linear_787_4391)" fill-opacity="0.6"/>
<path d="M246.673 301.806L226.974 291.696L246.675 327.268L246.673 301.806Z" fill="url(#paint38_linear_787_4391)"/>
</g>
<g style="mix-blend-mode:lighten" filter="url(#filter4_f_787_4391)">
<ellipse cx="246.748" cy="291.509" rx="31.7265" ry="14.1036" fill="url(#paint39_radial_787_4391)" fill-opacity="0.3"/>
</g>
<path d="M246.672 281.602L266.359 291.688L246.672 301.774L226.986 291.688L246.672 281.602Z" fill="url(#paint40_linear_787_4391)"/>
<path d="M246.67 301.764L266.357 291.678L246.672 256.128L246.67 301.764Z" fill="url(#paint41_linear_787_4391)" fill-opacity="0.8"/>
<path d="M246.666 301.764L226.968 291.699L246.669 256.128L246.666 301.764Z" fill="url(#paint42_linear_787_4391)"/>
<path d="M246.666 301.764L226.968 291.699L246.669 256.128L246.666 301.764Z" fill="url(#paint43_linear_787_4391)" fill-opacity="0.5"/>
<mask id="mask2_787_4391" style="mask-type:alpha" maskUnits="userSpaceOnUse" x="63" y="216" width="27" height="27">
<rect opacity="0.4" x="63.3486" y="216.555" width="26.3572" height="25.5544" fill="url(#paint44_linear_787_4391)"/>
</mask>
<g mask="url(#mask2_787_4391)">
<path d="M76.5257 209.798L89.7042 216.55L76.5273 240.347L76.5257 209.798Z" fill="url(#paint45_linear_787_4391)" fill-opacity="0.6"/>
<path d="M76.5257 223.303L63.3394 216.536L76.5273 240.347L76.5257 223.303Z" fill="url(#paint46_linear_787_4391)"/>
</g>
<g style="mix-blend-mode:lighten" filter="url(#filter5_f_787_4391)">
<ellipse cx="76.5824" cy="216.416" rx="21.2381" ry="9.44112" fill="url(#paint47_radial_787_4391)" fill-opacity="0.3"/>
</g>
<path d="M76.5308 209.781L89.7093 216.533L76.5307 223.285L63.3522 216.533L76.5308 209.781Z" fill="url(#paint48_linear_787_4391)"/>
<path d="M76.5291 223.288L89.7076 216.536L76.5308 192.739L76.5291 223.288Z" fill="url(#paint49_linear_787_4391)" fill-opacity="0.8"/>
<path d="M76.533 223.287L63.3467 216.549L76.5347 192.737L76.533 223.287Z" fill="url(#paint50_linear_787_4391)"/>
<path d="M76.533 223.287L63.3467 216.549L76.5347 192.737L76.533 223.287Z" fill="url(#paint51_linear_787_4391)" fill-opacity="0.5"/>
<mask id="mask3_787_4391" style="mask-type:alpha" maskUnits="userSpaceOnUse" x="211" y="216" width="28" height="27">
<rect opacity="0.4" x="211.847" y="216.555" width="26.3572" height="25.5544" fill="url(#paint52_linear_787_4391)"/>
</mask>
<g mask="url(#mask3_787_4391)">
<path d="M225.022 209.798L238.2 216.55L225.023 240.347L225.022 209.798Z" fill="url(#paint53_linear_787_4391)" fill-opacity="0.6"/>
<path d="M225.023 223.303L211.837 216.536L225.025 240.347L225.023 223.303Z" fill="url(#paint54_linear_787_4391)"/>
</g>
<g style="mix-blend-mode:lighten" filter="url(#filter6_f_787_4391)">
<ellipse cx="225.074" cy="216.416" rx="21.2381" ry="9.44112" fill="url(#paint55_radial_787_4391)" fill-opacity="0.3"/>
</g>
<path d="M225.018 209.78L238.196 216.532L225.018 223.284L211.839 216.532L225.018 209.78Z" fill="url(#paint56_linear_787_4391)"/>
<path d="M225.016 223.287L238.194 216.535L225.018 192.738L225.016 223.287Z" fill="url(#paint57_linear_787_4391)" fill-opacity="0.8"/>
<path d="M225.021 223.288L211.835 216.55L225.023 192.739L225.021 223.288Z" fill="url(#paint58_linear_787_4391)"/>
<path opacity="0.7" d="M87.4198 38.7932L91.3641 41.4327L87.4198 44.0721L83.4756 41.4327L87.4198 38.7932Z" fill="url(#paint59_linear_787_4391)"/>
<path d="M83.4756 75.8377L87.4198 78.4771L87.4199 44.0585L83.4756 41.4191L83.4756 75.8377Z" fill="url(#paint60_linear_787_4391)"/>
<path d="M91.3623 75.8377L87.4199 78.4771L87.42 44.0585L91.3624 41.4191L91.3623 75.8377Z" fill="url(#paint61_linear_787_4391)"/>
<path opacity="0.7" d="M249.984 107.728L254.915 111.028L249.984 114.327L245.054 111.028L249.984 107.728Z" fill="url(#paint62_linear_787_4391)"/>
<path d="M245.055 154.04L249.985 157.339L249.985 114.316L245.055 111.016L245.055 154.04Z" fill="url(#paint63_linear_787_4391)"/>
<path d="M254.919 154.04L249.991 157.339L249.991 114.316L254.919 111.016L254.919 154.04Z" fill="url(#paint64_linear_787_4391)"/>
<path opacity="0.7" d="M38.8259 109.301L46.9609 114.745L38.8259 120.188L30.6909 114.745L38.8259 109.301Z" fill="url(#paint65_linear_787_4391)"/>
<path d="M30.6909 185.716L38.8259 191.16L38.826 120.172L30.691 114.728L30.6909 185.716Z" fill="url(#paint66_linear_787_4391)"/>
<path d="M46.9569 185.716L38.8257 191.16L38.8258 120.172L46.957 114.728L46.9569 185.716Z" fill="url(#paint67_linear_787_4391)"/>
<defs>
<filter id="filter0_d_787_4391" x="0.294131" y="186.982" width="301.084" height="157.665" filterUnits="userSpaceOnUse" color-interpolation-filters="sRGB">
<feFlood flood-opacity="0" result="BackgroundImageFix"/>
<feColorMatrix in="SourceAlpha" type="matrix" values="0 0 0 0 0 0 0 0 0 0 0 0 0 0 0 0 0 0 127 0" result="hardAlpha"/>
<feOffset dy="0.941174"/>
<feGaussianBlur stdDeviation="2.35293"/>
<feComposite in2="hardAlpha" operator="out"/>
<feColorMatrix type="matrix" values="0 0 0 0 0.369333 0 0 0 0 0.0916667 0 0 0 0 0.5 0 0 0 0.15 0"/>
<feBlend mode="normal" in2="BackgroundImageFix" result="effect1_dropShadow_787_4391"/>
<feBlend mode="normal" in="SourceGraphic" in2="effect1_dropShadow_787_4391" result="shape"/>
</filter>
<filter id="filter1_d_787_4391" x="69.5622" y="205.424" width="162.54" height="91.9325" filterUnits="userSpaceOnUse" color-interpolation-filters="sRGB">
<feFlood flood-opacity="0" result="BackgroundImageFix"/>
<feColorMatrix in="SourceAlpha" type="matrix" values="0 0 0 0 0 0 0 0 0 0 0 0 0 0 0 0 0 0 127 0" result="hardAlpha"/>
<feOffset dy="0.941174"/>
<feGaussianBlur stdDeviation="2.35293"/>
<feComposite in2="hardAlpha" operator="out"/>
<feColorMatrix type="matrix" values="0 0 0 0 0.369333 0 0 0 0 0.0916667 0 0 0 0 0.5 0 0 0 0.15 0"/>
<feBlend mode="normal" in2="BackgroundImageFix" result="effect1_dropShadow_787_4391"/>
<feBlend mode="normal" in="SourceGraphic" in2="effect1_dropShadow_787_4391" result="shape"/>
</filter>
<filter id="filter2_d_787_4391" x="91.0573" y="210.332" width="119.549" height="65.0535" filterUnits="userSpaceOnUse" color-interpolation-filters="sRGB">
<feFlood flood-opacity="0" result="BackgroundImageFix"/>
<feColorMatrix in="SourceAlpha" type="matrix" values="0 0 0 0 0 0 0 0 0 0 0 0 0 0 0 0 0 0 127 0" result="hardAlpha"/>
<feOffset dy="0.941174"/>
<feGaussianBlur stdDeviation="2.35293"/>
<feComposite in2="hardAlpha" operator="out"/>
<feColorMatrix type="matrix" values="0 0 0 0 0.369333 0 0 0 0 0.0916667 0 0 0 0 0.5 0 0 0 0.15 0"/>
<feBlend mode="normal" in2="BackgroundImageFix" result="effect1_dropShadow_787_4391"/>
<feBlend mode="normal" in="SourceGraphic" in2="effect1_dropShadow_787_4391" result="shape"/>
</filter>
<filter id="filter3_f_787_4391" x="2.47074" y="256.702" width="104.859" height="69.6135" filterUnits="userSpaceOnUse" color-interpolation-filters="sRGB">
<feFlood flood-opacity="0" result="BackgroundImageFix"/>
<feBlend mode="normal" in="SourceGraphic" in2="BackgroundImageFix" result="shape"/>
<feGaussianBlur stdDeviation="10.3515" result="effect1_foregroundBlur_787_4391"/>
</filter>
<filter id="filter4_f_787_4391" x="194.318" y="256.702" width="104.859" height="69.6135" filterUnits="userSpaceOnUse" color-interpolation-filters="sRGB">
<feFlood flood-opacity="0" result="BackgroundImageFix"/>
<feBlend mode="normal" in="SourceGraphic" in2="BackgroundImageFix" result="shape"/>
<feGaussianBlur stdDeviation="10.3515" result="effect1_foregroundBlur_787_4391"/>
</filter>
<filter id="filter5_f_787_4391" x="34.6411" y="186.272" width="83.8823" height="60.2884" filterUnits="userSpaceOnUse" color-interpolation-filters="sRGB">
<feFlood flood-opacity="0" result="BackgroundImageFix"/>
<feBlend mode="normal" in="SourceGraphic" in2="BackgroundImageFix" result="shape"/>
<feGaussianBlur stdDeviation="10.3515" result="effect1_foregroundBlur_787_4391"/>
</filter>
<filter id="filter6_f_787_4391" x="183.132" y="186.272" width="83.8823" height="60.2884" filterUnits="userSpaceOnUse" color-interpolation-filters="sRGB">
<feFlood flood-opacity="0" result="BackgroundImageFix"/>
<feBlend mode="normal" in="SourceGraphic" in2="BackgroundImageFix" result="shape"/>
<feGaussianBlur stdDeviation="10.3515" result="effect1_foregroundBlur_787_4391"/>
</filter>
<linearGradient id="paint0_linear_787_4391" x1="17.3228" y1="307.149" x2="268.704" y2="240.549" gradientUnits="userSpaceOnUse">
<stop stop-color="#7CB8FF" stop-opacity="0.45"/>
<stop offset="1" stop-color="#5653FF" stop-opacity="0"/>
</linearGradient>
<linearGradient id="paint1_linear_787_4391" x1="102.247" y1="344.572" x2="199.24" y2="192.013" gradientUnits="userSpaceOnUse">
<stop stop-color="white"/>
<stop offset="1" stop-color="white" stop-opacity="0"/>
</linearGradient>
<linearGradient id="paint2_linear_787_4391" x1="92.3063" y1="272.138" x2="174.077" y2="191.152" gradientUnits="userSpaceOnUse">
<stop stop-color="#76A5FF"/>
<stop offset="0.645488" stop-color="#5653FF" stop-opacity="0.15"/>
<stop offset="0.975722" stop-color="#5653FF" stop-opacity="0"/>
</linearGradient>
<linearGradient id="paint3_linear_787_4391" x1="110.702" y1="307.423" x2="190.995" y2="210.396" gradientUnits="userSpaceOnUse">
<stop stop-color="white"/>
<stop offset="1" stop-color="#5BFFF5" stop-opacity="0"/>
</linearGradient>
<linearGradient id="paint4_linear_787_4391" x1="108.737" y1="256.542" x2="163.792" y2="198.378" gradientUnits="userSpaceOnUse">
<stop stop-color="#99E0FF"/>
<stop offset="0.645488" stop-color="#5653FF" stop-opacity="0.15"/>
<stop offset="0.975722" stop-color="#5653FF" stop-opacity="0"/>
</linearGradient>
<linearGradient id="paint5_linear_787_4391" x1="121.968" y1="280.334" x2="175.351" y2="211.523" gradientUnits="userSpaceOnUse">
<stop stop-color="white"/>
<stop offset="1" stop-color="#5BFFF5" stop-opacity="0"/>
</linearGradient>
<radialGradient id="paint6_radial_787_4391" cx="0" cy="0" r="1" gradientUnits="userSpaceOnUse" gradientTransform="translate(150.824 236.836) rotate(-180) scale(56.3798 28.7379)">
<stop stop-color="#6D61FF"/>
<stop offset="1" stop-color="#95D2FF"/>
</radialGradient>
<linearGradient id="paint7_linear_787_4391" x1="172.77" y1="241.78" x2="115.005" y2="252.127" gradientUnits="userSpaceOnUse">
<stop stop-color="white" stop-opacity="0.83"/>
<stop offset="0.509498" stop-color="#4786FF" stop-opacity="0.8"/>
<stop offset="1" stop-color="#6D61FF" stop-opacity="0.5"/>
</linearGradient>
<radialGradient id="paint8_radial_787_4391" cx="0" cy="0" r="1" gradientUnits="userSpaceOnUse" gradientTransform="translate(150.834 214.55) rotate(-180) scale(74.3808 37.9134)">
<stop stop-color="#8061FF"/>
<stop offset="1" stop-color="#8054FF"/>
</radialGradient>
<linearGradient id="paint9_linear_787_4391" x1="164.892" y1="276.458" x2="232.506" y2="227.688" gradientUnits="userSpaceOnUse">
<stop offset="0.0729167" stop-color="#4B86FA" stop-opacity="0.8"/>
<stop offset="0.51972" stop-color="#A6E8FC" stop-opacity="0.71"/>
<stop offset="0.969868" stop-color="white"/>
</linearGradient>
<linearGradient id="paint10_linear_787_4391" x1="178.782" y1="143.49" x2="132.312" y2="172.604" gradientUnits="userSpaceOnUse">
<stop offset="0.0729167" stop-color="#4B86FA" stop-opacity="0.8"/>
<stop offset="0.687497" stop-color="#A6F7FC" stop-opacity="0.8"/>
<stop offset="1" stop-color="white"/>
</linearGradient>
<linearGradient id="paint11_linear_787_4391" x1="202.959" y1="215.53" x2="175.249" y2="214.729" gradientUnits="userSpaceOnUse">
<stop stop-color="white"/>
<stop offset="0.461543" stop-color="white" stop-opacity="0.358036"/>
<stop offset="1" stop-color="white" stop-opacity="0"/>
</linearGradient>
<linearGradient id="paint12_linear_787_4391" x1="178.782" y1="143.49" x2="175.502" y2="233.397" gradientUnits="userSpaceOnUse">
<stop offset="0.0729167" stop-color="#4B86FA" stop-opacity="0"/>
<stop offset="0.58379" stop-color="#A6B9FC" stop-opacity="0.8"/>
<stop offset="0.840195" stop-color="#62FFD9" stop-opacity="0.897726"/>
<stop offset="1" stop-color="white"/>
</linearGradient>
<linearGradient id="paint13_linear_787_4391" x1="202.959" y1="215.53" x2="175.249" y2="214.729" gradientUnits="userSpaceOnUse">
<stop stop-color="white"/>
<stop offset="0.461543" stop-color="white" stop-opacity="0.358036"/>
<stop offset="1" stop-color="white" stop-opacity="0"/>
</linearGradient>
<linearGradient id="paint14_linear_787_4391" x1="92.7494" y1="228.443" x2="174.142" y2="209.787" gradientUnits="userSpaceOnUse">
<stop offset="0.0729167" stop-color="#4B86FA" stop-opacity="0.8"/>
<stop offset="0.665013" stop-color="#A6C8FC" stop-opacity="0.8"/>
<stop offset="0.873663" stop-color="#67CBD1" stop-opacity="0.924572"/>
<stop offset="1" stop-color="#2963D3"/>
</linearGradient>
<linearGradient id="paint15_linear_787_4391" x1="130.445" y1="233.955" x2="117.294" y2="208.102" gradientUnits="userSpaceOnUse">
<stop stop-color="white"/>
<stop offset="1" stop-color="white" stop-opacity="0"/>
</linearGradient>
<radialGradient id="paint16_radial_787_4391" cx="0" cy="0" r="1" gradientUnits="userSpaceOnUse" gradientTransform="translate(102.515 214.774) rotate(164.07) scale(37.1855 56.0671)">
<stop stop-color="white"/>
<stop offset="0.463542" stop-color="white" stop-opacity="0.246269"/>
<stop offset="0.697917" stop-color="white" stop-opacity="0"/>
</radialGradient>
<linearGradient id="paint17_linear_787_4391" x1="92.7494" y1="228.443" x2="182.108" y2="207.827" gradientUnits="userSpaceOnUse">
<stop offset="0.0729167" stop-color="#9AFFF9" stop-opacity="0.8"/>
<stop offset="0.730317" stop-color="#A6BEFC" stop-opacity="0.8"/>
<stop offset="1" stop-color="#1C3E7E"/>
</linearGradient>
<linearGradient id="paint18_linear_787_4391" x1="130.445" y1="233.955" x2="117.294" y2="208.103" gradientUnits="userSpaceOnUse">
<stop stop-color="white"/>
<stop offset="1" stop-color="white" stop-opacity="0"/>
</linearGradient>
<radialGradient id="paint19_radial_787_4391" cx="0" cy="0" r="1" gradientUnits="userSpaceOnUse" gradientTransform="translate(102.515 214.775) rotate(164.07) scale(37.1855 56.0672)">
<stop stop-color="white"/>
<stop offset="0.463542" stop-color="white" stop-opacity="0.246269"/>
<stop offset="0.697917" stop-color="white" stop-opacity="0"/>
</radialGradient>
<linearGradient id="paint20_linear_787_4391" x1="92.7494" y1="228.443" x2="172.744" y2="210.139" gradientUnits="userSpaceOnUse">
<stop offset="0.0729167" stop-color="#4BBBFA" stop-opacity="0.15"/>
<stop offset="0.644297" stop-color="#5F6FFF" stop-opacity="0.5"/>
<stop offset="0.823972" stop-color="#5FFFCF" stop-opacity="0.5"/>
<stop offset="1" stop-color="#1C3E7E" stop-opacity="0"/>
</linearGradient>
<radialGradient id="paint21_radial_787_4391" cx="0" cy="0" r="1" gradientUnits="userSpaceOnUse" gradientTransform="translate(136.87 198.748) rotate(-28.3613) scale(45.2203 16.3653)">
<stop stop-color="#70A9FF"/>
<stop offset="1" stop-color="#80FFE8" stop-opacity="0"/>
</radialGradient>
<radialGradient id="paint22_radial_787_4391" cx="0" cy="0" r="1" gradientUnits="userSpaceOnUse" gradientTransform="translate(125.828 231.699) rotate(68.7107) scale(31.5596 78.7238)">
<stop stop-color="#EEFFF7"/>
<stop offset="1" stop-color="white" stop-opacity="0"/>
</radialGradient>
<radialGradient id="paint23_radial_787_4391" cx="0" cy="0" r="1" gradientUnits="userSpaceOnUse" gradientTransform="translate(100.411 213.138) rotate(-12.9066) scale(17.7402 44.3268)">
<stop stop-color="#70FFE5"/>
<stop offset="1" stop-color="#43FFFF" stop-opacity="0"/>
</radialGradient>
<linearGradient id="paint24_linear_787_4391" x1="180.411" y1="43.7906" x2="180.411" y2="148.882" gradientUnits="userSpaceOnUse">
<stop offset="0.027939" stop-color="#84FFF8" stop-opacity="0"/>
<stop offset="0.149401" stop-color="#84A6FF" stop-opacity="0"/>
<stop offset="0.358067" stop-color="#84D3FF" stop-opacity="0.104383"/>
<stop offset="0.560503" stop-color="#84AEFF" stop-opacity="0.26"/>
<stop offset="0.807292" stop-color="#849FFF" stop-opacity="0.63"/>
<stop offset="1" stop-color="#DBF8FF" stop-opacity="0.56"/>
</linearGradient>
<linearGradient id="paint25_linear_787_4391" x1="201.872" y1="68.7346" x2="201.872" y2="189.351" gradientUnits="userSpaceOnUse">
<stop offset="0.027939" stop-color="#84FFF8" stop-opacity="0"/>
<stop offset="0.149401" stop-color="#84A6FF" stop-opacity="0"/>
<stop offset="0.358067" stop-color="#84D3FF" stop-opacity="0.104383"/>
<stop offset="0.560503" stop-color="#84AEFF" stop-opacity="0.26"/>
<stop offset="0.807292" stop-color="#849FFF" stop-opacity="0.63"/>
<stop offset="1" stop-color="#DBF8FF" stop-opacity="0.56"/>
</linearGradient>
<linearGradient id="paint26_linear_787_4391" x1="133.332" y1="37.4895" x2="133.332" y2="124.269" gradientUnits="userSpaceOnUse">
<stop offset="0.027939" stop-color="#84FFF8" stop-opacity="0"/>
<stop offset="0.149401" stop-color="#84A6FF" stop-opacity="0"/>
<stop offset="0.358067" stop-color="#84D3FF" stop-opacity="0.104383"/>
<stop offset="0.560503" stop-color="#84AEFF" stop-opacity="0.26"/>
<stop offset="0.807292" stop-color="#849FFF" stop-opacity="0.63"/>
<stop offset="1" stop-color="#DBF8FF" stop-opacity="0.56"/>
</linearGradient>
<linearGradient id="paint27_linear_787_4391" x1="109.573" y1="101.377" x2="109.573" y2="180.593" gradientUnits="userSpaceOnUse">
<stop offset="0.027939" stop-color="#84FFF8" stop-opacity="0"/>
<stop offset="0.149401" stop-color="#84A6FF" stop-opacity="0"/>
<stop offset="0.358067" stop-color="#84D3FF" stop-opacity="0.104383"/>
<stop offset="0.560503" stop-color="#84AEFF" stop-opacity="0.26"/>
<stop offset="0.807292" stop-color="#849FFF" stop-opacity="0.63"/>
<stop offset="1" stop-color="#DBF8FF" stop-opacity="0.56"/>
</linearGradient>
<linearGradient id="paint28_linear_787_4391" x1="54.8279" y1="283.843" x2="54.8279" y2="322.631" gradientUnits="userSpaceOnUse">
<stop/>
<stop offset="0.461538" stop-opacity="0.361991"/>
<stop offset="0.674208" stop-opacity="0.127762"/>
<stop offset="1" stop-opacity="0"/>
</linearGradient>
<linearGradient id="paint29_linear_787_4391" x1="73.1528" y1="286.269" x2="58.0294" y2="328.355" gradientUnits="userSpaceOnUse">
<stop offset="0.170794" stop-color="#4B3BA9"/>
<stop offset="0.537799" stop-color="#7BDFFF" stop-opacity="0.8"/>
<stop offset="0.791667" stop-color="white"/>
</linearGradient>
<linearGradient id="paint30_linear_787_4391" x1="54.5904" y1="327.267" x2="40.9059" y2="290.463" gradientUnits="userSpaceOnUse">
<stop stop-color="#3DDCFF"/>
<stop offset="0.427083" stop-color="#5076FF" stop-opacity="0.5"/>
<stop offset="0.977116" stop-color="#78FFD7"/>
</linearGradient>
<radialGradient id="paint31_radial_787_4391" cx="0" cy="0" r="1" gradientUnits="userSpaceOnUse" gradientTransform="translate(54.9003 291.509) rotate(90) scale(14.1036 31.7265)">
<stop offset="0.0416667" stop-color="#A7EFFF"/>
<stop offset="0.447917" stop-color="#B1FFFF" stop-opacity="0.8"/>
<stop offset="1" stop-color="#6978FF" stop-opacity="0"/>
</radialGradient>
<linearGradient id="paint32_linear_787_4391" x1="64.6686" y1="282.82" x2="47.0283" y2="302.4" gradientUnits="userSpaceOnUse">
<stop stop-color="#6083FF"/>
<stop offset="1" stop-color="#0C1E5E" stop-opacity="0"/>
</linearGradient>
<linearGradient id="paint33_linear_787_4391" x1="73.9212" y1="292.735" x2="43.8647" y2="274.836" gradientUnits="userSpaceOnUse">
<stop offset="0.0888964" stop-color="#4B9EFF" stop-opacity="0.93"/>
<stop offset="0.603942" stop-color="#94FFF9" stop-opacity="0.99"/>
<stop offset="1" stop-color="white"/>
</linearGradient>
<linearGradient id="paint34_linear_787_4391" x1="55.0326" y1="257.168" x2="27.8862" y2="279.258" gradientUnits="userSpaceOnUse">
<stop stop-color="#3DDCFF"/>
<stop offset="0.427083" stop-color="#5076FF" stop-opacity="0.62"/>
<stop offset="0.627473" stop-color="#8B90FF" stop-opacity="0.57"/>
<stop offset="0.805569" stop-color="#A3FFF9" stop-opacity="0.757781"/>
<stop offset="0.977116" stop-color="#F8E2FF" stop-opacity="0.81"/>
</linearGradient>
<linearGradient id="paint35_linear_787_4391" x1="52.5001" y1="301.323" x2="46.627" y2="281.299" gradientUnits="userSpaceOnUse">
<stop stop-color="#4AFFF4"/>
<stop offset="1" stop-color="#4AFFFF" stop-opacity="0"/>
</linearGradient>
<linearGradient id="paint36_linear_787_4391" x1="246.674" y1="283.843" x2="246.674" y2="322.631" gradientUnits="userSpaceOnUse">
<stop/>
<stop offset="0.461538" stop-opacity="0.361991"/>
<stop offset="0.674208" stop-opacity="0.127762"/>
<stop offset="1" stop-opacity="0"/>
</linearGradient>
<linearGradient id="paint37_linear_787_4391" x1="265.004" y1="286.269" x2="249.881" y2="328.355" gradientUnits="userSpaceOnUse">
<stop offset="0.170794" stop-color="#4B3BA9"/>
<stop offset="0.537799" stop-color="#7BDFFF" stop-opacity="0.8"/>
<stop offset="0.791667" stop-color="white"/>
</linearGradient>
<linearGradient id="paint38_linear_787_4391" x1="246.442" y1="327.268" x2="232.758" y2="290.464" gradientUnits="userSpaceOnUse">
<stop stop-color="#3DDCFF"/>
<stop offset="0.427083" stop-color="#5076FF" stop-opacity="0.5"/>
<stop offset="0.977116" stop-color="#78FFD7"/>
</linearGradient>
<radialGradient id="paint39_radial_787_4391" cx="0" cy="0" r="1" gradientUnits="userSpaceOnUse" gradientTransform="translate(246.748 291.509) rotate(90) scale(14.1036 31.7265)">
<stop offset="0.0416667" stop-color="#A7EFFF"/>
<stop offset="0.447917" stop-color="#B1FFFF" stop-opacity="0.8"/>
<stop offset="1" stop-color="#6978FF" stop-opacity="0"/>
</radialGradient>
<linearGradient id="paint40_linear_787_4391" x1="256.516" y1="282.82" x2="238.876" y2="302.4" gradientUnits="userSpaceOnUse">
<stop stop-color="#6083FF"/>
<stop offset="1" stop-color="#0C1E5E" stop-opacity="0"/>
</linearGradient>
<linearGradient id="paint41_linear_787_4391" x1="265.768" y1="292.735" x2="235.711" y2="274.836" gradientUnits="userSpaceOnUse">
<stop offset="0.0888964" stop-color="#4B9EFF" stop-opacity="0.93"/>
<stop offset="0.603942" stop-color="#94FFF9" stop-opacity="0.99"/>
<stop offset="1" stop-color="white"/>
</linearGradient>
<linearGradient id="paint42_linear_787_4391" x1="246.879" y1="257.168" x2="219.732" y2="279.258" gradientUnits="userSpaceOnUse">
<stop stop-color="#3DDCFF"/>
<stop offset="0.427083" stop-color="#5076FF" stop-opacity="0.62"/>
<stop offset="0.627473" stop-color="#8B90FF" stop-opacity="0.57"/>
<stop offset="0.805569" stop-color="#A3FFF9" stop-opacity="0.757781"/>
<stop offset="0.977116" stop-color="#F8E2FF" stop-opacity="0.81"/>
</linearGradient>
<linearGradient id="paint43_linear_787_4391" x1="244.346" y1="301.323" x2="238.473" y2="281.299" gradientUnits="userSpaceOnUse">
<stop stop-color="#4AFFF4"/>
<stop offset="1" stop-color="#4AFFFF" stop-opacity="0"/>
</linearGradient>
<linearGradient id="paint44_linear_787_4391" x1="76.5272" y1="211.298" x2="76.5272" y2="237.264" gradientUnits="userSpaceOnUse">
<stop/>
<stop offset="0.461538" stop-opacity="0.361991"/>
<stop offset="0.674208" stop-opacity="0.127762"/>
<stop offset="1" stop-opacity="0"/>
</linearGradient>
<linearGradient id="paint45_linear_787_4391" x1="88.798" y1="212.903" x2="78.6743" y2="241.076" gradientUnits="userSpaceOnUse">
<stop offset="0.170794" stop-color="#4B3BA9"/>
<stop offset="0.537799" stop-color="#7BDFFF" stop-opacity="0.8"/>
<stop offset="0.791667" stop-color="white"/>
</linearGradient>
<linearGradient id="paint46_linear_787_4391" x1="76.3715" y1="240.347" x2="67.2109" y2="215.71" gradientUnits="userSpaceOnUse">
<stop stop-color="#3DDCFF"/>
<stop offset="0.427083" stop-color="#5076FF" stop-opacity="0.5"/>
<stop offset="0.977116" stop-color="#78FFD7"/>
</linearGradient>
<radialGradient id="paint47_radial_787_4391" cx="0" cy="0" r="1" gradientUnits="userSpaceOnUse" gradientTransform="translate(76.5824 216.416) rotate(90) scale(9.44112 21.2381)">
<stop offset="0.0416667" stop-color="#A7EFFF"/>
<stop offset="0.447917" stop-color="#B1FFFF" stop-opacity="0.8"/>
<stop offset="1" stop-color="#6978FF" stop-opacity="0"/>
</radialGradient>
<linearGradient id="paint48_linear_787_4391" x1="83.12" y1="210.596" x2="71.3115" y2="223.704" gradientUnits="userSpaceOnUse">
<stop stop-color="#6083FF"/>
<stop offset="1" stop-color="#0C1E5E" stop-opacity="0"/>
</linearGradient>
<linearGradient id="paint49_linear_787_4391" x1="89.3136" y1="217.244" x2="69.1933" y2="205.262" gradientUnits="userSpaceOnUse">
<stop offset="0.0888964" stop-color="#4B9EFF" stop-opacity="0.93"/>
<stop offset="0.603942" stop-color="#94FFF9" stop-opacity="0.99"/>
<stop offset="1" stop-color="white"/>
</linearGradient>
<linearGradient id="paint50_linear_787_4391" x1="76.6751" y1="193.434" x2="58.503" y2="208.221" gradientUnits="userSpaceOnUse">
<stop stop-color="#3DDCFF"/>
<stop offset="0.427083" stop-color="#5076FF" stop-opacity="0.62"/>
<stop offset="0.627473" stop-color="#8B90FF" stop-opacity="0.57"/>
<stop offset="0.805569" stop-color="#A3FFF9" stop-opacity="0.757781"/>
<stop offset="0.977116" stop-color="#F8E2FF" stop-opacity="0.81"/>
</linearGradient>
<linearGradient id="paint51_linear_787_4391" x1="74.9799" y1="222.992" x2="71.0483" y2="209.587" gradientUnits="userSpaceOnUse">
<stop stop-color="#4AFFF4"/>
<stop offset="1" stop-color="#4AFFFF" stop-opacity="0"/>
</linearGradient>
<linearGradient id="paint52_linear_787_4391" x1="225.026" y1="211.298" x2="225.026" y2="237.263" gradientUnits="userSpaceOnUse">
<stop/>
<stop offset="0.461538" stop-opacity="0.361991"/>
<stop offset="0.674208" stop-opacity="0.127762"/>
<stop offset="1" stop-opacity="0"/>
</linearGradient>
<linearGradient id="paint53_linear_787_4391" x1="237.294" y1="212.903" x2="227.17" y2="241.076" gradientUnits="userSpaceOnUse">
<stop offset="0.170794" stop-color="#4B3BA9"/>
<stop offset="0.537799" stop-color="#7BDFFF" stop-opacity="0.8"/>
<stop offset="0.791667" stop-color="white"/>
</linearGradient>
<linearGradient id="paint54_linear_787_4391" x1="224.869" y1="240.347" x2="215.708" y2="215.71" gradientUnits="userSpaceOnUse">
<stop stop-color="#3DDCFF"/>
<stop offset="0.427083" stop-color="#5076FF" stop-opacity="0.5"/>
<stop offset="0.977116" stop-color="#78FFD7"/>
</linearGradient>
<radialGradient id="paint55_radial_787_4391" cx="0" cy="0" r="1" gradientUnits="userSpaceOnUse" gradientTransform="translate(225.074 216.416) rotate(90) scale(9.44112 21.2381)">
<stop offset="0.0416667" stop-color="#A7EFFF"/>
<stop offset="0.447917" stop-color="#B1FFFF" stop-opacity="0.8"/>
<stop offset="1" stop-color="#6978FF" stop-opacity="0"/>
</radialGradient>
<linearGradient id="paint56_linear_787_4391" x1="231.607" y1="210.596" x2="219.798" y2="223.703" gradientUnits="userSpaceOnUse">
<stop stop-color="#6083FF"/>
<stop offset="1" stop-color="#0C1E5E" stop-opacity="0"/>
</linearGradient>
<linearGradient id="paint57_linear_787_4391" x1="237.8" y1="217.243" x2="217.808" y2="203.094" gradientUnits="userSpaceOnUse">
<stop offset="0.0473646" stop-color="#3D3BA9"/>
<stop offset="0.537799" stop-color="#7BFFF7" stop-opacity="0.8"/>
<stop offset="0.791667" stop-color="white"/>
</linearGradient>
<linearGradient id="paint58_linear_787_4391" x1="225.163" y1="193.435" x2="206.991" y2="208.222" gradientUnits="userSpaceOnUse">
<stop stop-color="#3DDCFF"/>
<stop offset="0.427083" stop-color="#5076FF" stop-opacity="0.62"/>
<stop offset="0.627473" stop-color="#8B90FF" stop-opacity="0.57"/>
<stop offset="0.805569" stop-color="#A3FFF9" stop-opacity="0.757781"/>
<stop offset="0.977116" stop-color="#F8E2FF" stop-opacity="0.81"/>
</linearGradient>
<linearGradient id="paint59_linear_787_4391" x1="87.7432" y1="44.4463" x2="87.0684" y2="37.8177" gradientUnits="userSpaceOnUse">
<stop stop-color="white"/>
<stop offset="0.0001" stop-color="white"/>
<stop offset="0.448479" stop-color="#9896FF"/>
<stop offset="0.981226" stop-color="#6978FF" stop-opacity="0.76"/>
</linearGradient>
<linearGradient id="paint60_linear_787_4391" x1="88.08" y1="84.2131" x2="77.1026" y2="43.448" gradientUnits="userSpaceOnUse">
<stop offset="0.155675" stop-color="#2FB4FF" stop-opacity="0"/>
<stop offset="0.587888" stop-color="#3317DE" stop-opacity="0.203265"/>
<stop offset="1" stop-color="#86B6FF" stop-opacity="0.78"/>
</linearGradient>
<linearGradient id="paint61_linear_787_4391" x1="94.0425" y1="70.6057" x2="76.4044" y2="60.3333" gradientUnits="userSpaceOnUse">
<stop stop-color="#2FB4FF" stop-opacity="0"/>
<stop offset="0.339878" stop-color="#3E1FFF" stop-opacity="0.1"/>
<stop offset="1" stop-color="#86FFF8" stop-opacity="0.47"/>
</linearGradient>
<linearGradient id="paint62_linear_787_4391" x1="250.389" y1="114.795" x2="249.545" y2="106.509" gradientUnits="userSpaceOnUse">
<stop stop-color="white"/>
<stop offset="0.0001" stop-color="white"/>
<stop offset="0.448479" stop-color="#9896FF"/>
<stop offset="0.981226" stop-color="#6978FF" stop-opacity="0.76"/>
</linearGradient>
<linearGradient id="paint63_linear_787_4391" x1="250.81" y1="164.509" x2="237.088" y2="113.553" gradientUnits="userSpaceOnUse">
<stop offset="0.155675" stop-color="#2FB4FF" stop-opacity="0"/>
<stop offset="0.587888" stop-color="#3317DE" stop-opacity="0.203265"/>
<stop offset="1" stop-color="#86B6FF" stop-opacity="0.78"/>
</linearGradient>
<linearGradient id="paint64_linear_787_4391" x1="258.269" y1="147.5" x2="236.221" y2="134.659" gradientUnits="userSpaceOnUse">
<stop stop-color="#2FB4FF" stop-opacity="0"/>
<stop offset="0.339878" stop-color="#3E1FFF" stop-opacity="0.1"/>
<stop offset="1" stop-color="#86FFF8" stop-opacity="0.47"/>
</linearGradient>
<linearGradient id="paint65_linear_787_4391" x1="36.4835" y1="121.424" x2="39.9626" y2="106.595" gradientUnits="userSpaceOnUse">
<stop stop-color="white"/>
<stop offset="0.0001" stop-color="white"/>
<stop offset="0.448479" stop-color="#96C0FF"/>
<stop offset="0.981226" stop-color="#69C9FF" stop-opacity="0.76"/>
</linearGradient>
<linearGradient id="paint66_linear_787_4391" x1="40.1875" y1="202.991" x2="17.5467" y2="118.913" gradientUnits="userSpaceOnUse">
<stop offset="0.155675" stop-color="#2FB4FF" stop-opacity="0"/>
<stop offset="0.587888" stop-color="#3317DE" stop-opacity="0.203265"/>
<stop offset="1" stop-color="#86B6FF" stop-opacity="0.78"/>
</linearGradient>
<linearGradient id="paint67_linear_787_4391" x1="52.4848" y1="174.925" x2="16.1061" y2="153.738" gradientUnits="userSpaceOnUse">
<stop stop-color="#2FB4FF" stop-opacity="0"/>
<stop offset="0.339878" stop-color="#3E1FFF" stop-opacity="0.1"/>
<stop offset="1" stop-color="#86FFF8" stop-opacity="0.47"/>
</linearGradient>
</defs>
</svg>
