<svg width="753" height="681" viewBox="0 0 753 681" fill="none" xmlns="http://www.w3.org/2000/svg">
<g filter="url(#filter0_f_735_2550)">
<ellipse cx="358.905" cy="487.775" rx="310.071" ry="109.499" fill="url(#paint0_radial_735_2550)" fill-opacity="0.2"/>
</g>
<mask id="mask0_735_2550" style="mask-type:alpha" maskUnits="userSpaceOnUse" x="136" y="470" width="459" height="394">
<rect x="136.431" y="470.985" width="458.129" height="393.014" fill="url(#paint1_linear_735_2550)"/>
</mask>
<g mask="url(#mask0_735_2550)">
<path d="M199.222 548.672L365.785 471.236L365.89 688.468L214.917 780.991L199.222 548.672Z" fill="url(#paint2_linear_735_2550)" fill-opacity="0.9"/>
<path d="M365.623 688.388L535.126 757.45L550.11 531.857L365.518 471.156L365.623 688.388Z" fill="url(#paint3_linear_735_2550)" fill-opacity="0.6"/>
<path d="M199.221 548.668L399.718 621.722V863.537L214.917 780.987L199.221 548.668Z" fill="url(#paint4_linear_735_2550)" fill-opacity="0.9"/>
<path d="M199.221 548.668L399.718 621.722V863.537L214.917 780.987L199.221 548.668Z" fill="url(#paint5_radial_735_2550)" fill-opacity="0.3" style="mix-blend-mode:lighten"/>
<path d="M199.221 548.668L399.718 621.722V863.537L214.917 780.987L199.221 548.668Z" fill="url(#paint6_radial_735_2550)" fill-opacity="0.6"/>
<path opacity="0.72" d="M402.106 663.045C378.897 643.323 343.147 624.642 332.172 597.477C326.766 584.129 327.484 572.144 334.59 564.642C334.839 564.364 335.117 564.085 335.396 563.836C339.806 559.646 346.385 557.023 355.176 556.554C356.084 556.51 357.022 556.481 357.989 556.481C357.374 556.129 356.656 555.807 355.865 555.499C353.799 554.679 351.191 554.034 348.231 553.653C339.088 552.466 326.707 553.873 317.096 561.536C309.374 567.719 303.44 577.946 302.458 594.107C301.491 609.902 308.832 625.374 320.143 639.938C341.271 667.147 376.275 691.162 397.066 707.923C413.681 721.33 420.069 730.766 421.666 737.3C422.604 741.169 421.857 744.011 420.553 746.048C420.553 746.048 420.553 746.062 420.553 746.077C419.82 747.19 418.941 748.055 418.077 748.714C416.289 750.077 413.974 751 411.234 751.381C408.274 751.777 404.831 751.513 401.022 750.458C398.56 749.769 395.952 748.744 393.227 747.337C392.963 747.19 392.685 747.044 392.406 746.897C392.494 747.015 392.597 747.117 392.699 747.22C394.824 749.579 397.564 751.63 400.685 753.227C401.139 753.476 401.593 753.696 402.062 753.901C406.296 755.864 411.117 757.037 415.908 757.11C420.875 757.198 425.842 756.113 430.106 753.535C435.146 750.502 439.219 745.403 441.256 737.667C448.846 708.905 426.501 683.777 402.106 663.045Z" fill="#6C53D6"/>
<path d="M442.648 723.293C442.956 727.982 442.546 732.773 441.256 737.667C439.22 745.403 435.146 750.502 430.106 753.535C425.842 756.113 420.875 757.198 415.908 757.11C411.117 757.037 406.297 755.864 402.062 753.901C401.593 753.696 401.139 753.476 400.685 753.227C397.564 751.63 394.824 749.579 392.7 747.22C392.597 747.117 392.495 747.015 392.407 746.897C392.685 747.044 392.963 747.19 393.227 747.337C395.952 748.744 398.56 749.769 401.022 750.458C404.831 751.513 408.275 751.777 411.234 751.381C413.974 751 416.289 750.077 418.077 748.714C418.941 748.055 419.82 747.19 420.553 746.077C420.553 746.062 420.553 746.048 420.553 746.048C421.857 744.011 422.604 741.169 421.667 737.3C420.069 730.766 413.681 721.33 397.066 707.923C376.275 691.162 341.271 667.147 320.143 639.938C308.832 625.374 301.491 609.902 302.458 594.107C303.44 577.946 309.374 567.719 317.096 561.536C326.707 553.873 339.088 552.466 348.231 553.653C351.191 554.034 353.799 554.679 355.865 555.499C356.656 555.807 357.374 556.129 357.989 556.481C357.022 556.481 356.084 556.51 355.176 556.554C346.385 557.023 339.806 559.646 335.396 563.836C335.118 564.085 334.839 564.364 334.59 564.642C327.484 572.144 326.766 584.129 332.172 597.477C343.147 624.642 378.897 643.323 402.106 663.045C420.714 678.854 438.121 697.242 441.959 717.828C447.82 714.004 454.589 706.473 449.813 693.184C439.205 663.645 410.619 653.653 388.275 626.547C376.495 612.246 375.923 592.32 383.586 583.411C393.784 602.62 462.252 645.081 468.304 684.187C472.963 714.136 453.271 721.491 442.648 723.293Z" fill="url(#paint7_linear_735_2550)"/>
<path opacity="0.7" d="M441.25 737.683C439.213 745.419 435.14 750.518 430.1 753.551C429.558 753.873 429.016 754.181 428.459 754.459L407.536 764.422C408.034 764.159 408.547 763.88 409.03 763.587C412.166 761.682 414.921 758.972 417.045 755.324C417.104 755.221 417.162 755.133 417.206 755.03C417.47 754.547 417.734 754.063 417.983 753.551C418.056 753.404 418.129 753.258 418.203 753.096C418.496 752.466 418.774 751.836 419.023 751.162C419.463 750.034 419.844 748.833 420.181 747.558C421.47 742.62 421.895 737.77 421.587 733.053C421.47 731.177 421.236 729.331 420.899 727.499C417.045 706.723 399.639 688.174 381.031 672.203C357.822 652.291 322.071 633.419 311.097 605.991C302.35 584.16 309.646 565.977 334.101 564.673C334.262 564.658 334.423 564.658 334.584 564.658C327.478 572.16 326.76 584.145 332.166 597.493C343.141 624.658 378.891 643.339 402.1 663.06C426.496 683.793 448.84 708.921 441.25 737.683Z" fill="url(#paint8_linear_735_2550)" fill-opacity="0.7"/>
<path d="M357.986 556.499C357.371 556.148 356.653 555.825 355.861 555.518C353.795 554.697 351.187 554.052 348.228 553.671C342.103 552.866 334.513 553.247 327.29 555.884C327.217 555.913 327.144 555.928 327.085 555.957L325.942 556.397L306.675 563.811C310.162 562.58 313.693 561.862 317.107 561.554H317.122C320.682 561.232 324.096 561.334 327.158 561.745C330.118 562.126 332.726 562.785 334.792 563.605C334.997 563.679 335.187 563.767 335.393 563.855C335.949 564.089 336.462 564.338 336.916 564.602L357.986 556.499Z" fill="url(#paint9_linear_735_2550)" fill-opacity="0.7"/>
<path d="M357.986 556.499C357.371 556.148 356.653 555.825 355.861 555.518C353.795 554.697 351.187 554.052 348.228 553.671C342.103 552.866 334.513 553.247 327.29 555.884C327.217 555.913 327.144 555.928 327.085 555.957L325.942 556.397L306.675 563.811C310.162 562.58 313.693 561.862 317.107 561.554H317.122C320.682 561.232 324.096 561.334 327.158 561.745C330.118 562.126 332.726 562.785 334.792 563.605C334.997 563.679 335.187 563.767 335.393 563.855C335.949 564.089 336.462 564.338 336.916 564.602L357.986 556.499Z" fill="#7386EF" fill-opacity="0.1"/>
<g opacity="0.8">
<path d="M447.919 703.645C447.626 712.832 444.579 719.206 440.432 723.631C437.941 726.297 435.07 728.261 432.154 729.682L430.777 730.326C430.308 730.532 429.854 730.722 429.385 730.898C426.586 731.997 423.89 732.656 421.59 733.052C421.678 734.458 421.707 735.894 421.663 737.315C421.59 740.202 421.224 743.103 420.55 746.063C420.55 746.063 420.55 746.077 420.55 746.092C420.432 746.575 420.315 747.074 420.183 747.557C419.846 748.832 419.465 750.033 419.026 751.161C418.161 753.418 417.121 755.396 415.905 757.125C413.956 759.865 411.627 762.004 409.033 763.572C408.55 763.865 408.037 764.143 407.539 764.407L406.718 764.802C394.953 770.268 379.246 765.74 371.627 757.183C371.524 757.081 371.422 756.978 371.334 756.861C371.612 757.008 371.891 757.154 372.154 757.301C379.07 760.92 385.282 762.048 390.162 761.389C392.901 761.008 395.216 760.07 397.004 758.693C398.484 757.55 400.022 755.792 400.682 753.227C400.77 752.876 400.857 752.495 400.901 752.099C400.975 751.586 401.019 751.03 401.019 750.458C400.975 743.894 395.612 733.491 375.993 717.506C355.202 700.583 320.199 676.334 299.07 648.862C287.759 634.151 280.419 618.518 281.386 602.576C282.778 579.573 293.972 568.496 306.191 563.983C306.352 563.91 306.514 563.851 306.675 563.793C310.147 562.562 313.693 561.844 317.092 561.536C317.107 561.536 317.107 561.536 317.122 561.536C320.682 561.214 324.096 561.317 327.158 561.727C330.118 562.108 332.726 562.767 334.792 563.588C334.997 563.661 335.187 563.749 335.393 563.837C335.949 564.071 336.462 564.32 336.916 564.584C336.125 564.584 335.349 564.599 334.587 564.643C334.426 564.643 334.264 564.643 334.103 564.657C309.649 565.961 302.353 584.144 311.1 605.976C322.074 633.404 357.825 652.276 381.033 672.188C399.641 688.158 417.048 706.708 420.901 727.484C426.762 723.645 433.517 716.026 428.755 702.62C418.147 672.788 389.561 662.693 367.217 635.324C355.436 620.891 354.88 600.774 362.528 591.778C372.74 611.162 441.194 654.049 447.26 693.536C447.831 697.242 448.022 700.598 447.919 703.645Z" fill="url(#paint10_linear_735_2550)"/>
<path d="M447.919 703.645C447.626 712.832 444.579 719.206 440.432 723.631C437.941 726.297 435.07 728.261 432.154 729.682L430.777 730.326C430.308 730.532 429.854 730.722 429.385 730.898C426.586 731.997 423.89 732.656 421.59 733.052C421.678 734.458 421.707 735.894 421.663 737.315C421.59 740.202 421.224 743.103 420.55 746.063C420.55 746.063 420.55 746.077 420.55 746.092C420.432 746.575 420.315 747.074 420.183 747.557C419.846 748.832 419.465 750.033 419.026 751.161C418.161 753.418 417.121 755.396 415.905 757.125C413.956 759.865 411.627 762.004 409.033 763.572C408.55 763.865 408.037 764.143 407.539 764.407L406.718 764.802C394.953 770.268 379.246 765.74 371.627 757.183C371.524 757.081 371.422 756.978 371.334 756.861C371.612 757.008 371.891 757.154 372.154 757.301C379.07 760.92 385.282 762.048 390.162 761.389C392.901 761.008 395.216 760.07 397.004 758.693C398.484 757.55 400.022 755.792 400.682 753.227C400.77 752.876 400.857 752.495 400.901 752.099C400.975 751.586 401.019 751.03 401.019 750.458C400.975 743.894 395.612 733.491 375.993 717.506C355.202 700.583 320.199 676.334 299.07 648.862C287.759 634.151 280.419 618.518 281.386 602.576C282.778 579.573 293.972 568.496 306.191 563.983C306.352 563.91 306.514 563.851 306.675 563.793C310.147 562.562 313.693 561.844 317.092 561.536C317.107 561.536 317.107 561.536 317.122 561.536C320.682 561.214 324.096 561.317 327.158 561.727C330.118 562.108 332.726 562.767 334.792 563.588C334.997 563.661 335.187 563.749 335.393 563.837C335.949 564.071 336.462 564.32 336.916 564.584C336.125 564.584 335.349 564.599 334.587 564.643C334.426 564.643 334.264 564.643 334.103 564.657C309.649 565.961 302.353 584.144 311.1 605.976C322.074 633.404 357.825 652.276 381.033 672.188C399.641 688.158 417.048 706.708 420.901 727.484C426.762 723.645 433.517 716.026 428.755 702.62C418.147 672.788 389.561 662.693 367.217 635.324C355.436 620.891 354.88 600.774 362.528 591.778C372.74 611.162 441.194 654.049 447.26 693.536C447.831 697.242 448.022 700.598 447.919 703.645Z" fill="url(#paint11_linear_735_2550)" fill-opacity="0.5"/>
<path d="M447.919 703.645C447.626 712.832 444.579 719.206 440.432 723.631C437.941 726.297 435.07 728.261 432.154 729.682L430.777 730.326C430.308 730.532 429.854 730.722 429.385 730.898C426.586 731.997 423.89 732.656 421.59 733.052C421.678 734.458 421.707 735.894 421.663 737.315C421.59 740.202 421.224 743.103 420.55 746.063C420.55 746.063 420.55 746.077 420.55 746.092C420.432 746.575 420.315 747.074 420.183 747.557C419.846 748.832 419.465 750.033 419.026 751.161C418.161 753.418 417.121 755.396 415.905 757.125C413.956 759.865 411.627 762.004 409.033 763.572C408.55 763.865 408.037 764.143 407.539 764.407L406.718 764.802C394.953 770.268 379.246 765.74 371.627 757.183C371.524 757.081 371.422 756.978 371.334 756.861C371.612 757.008 371.891 757.154 372.154 757.301C379.07 760.92 385.282 762.048 390.162 761.389C392.901 761.008 395.216 760.07 397.004 758.693C398.484 757.55 400.022 755.792 400.682 753.227C400.77 752.876 400.857 752.495 400.901 752.099C400.975 751.586 401.019 751.03 401.019 750.458C400.975 743.894 395.612 733.491 375.993 717.506C355.202 700.583 320.199 676.334 299.07 648.862C287.759 634.151 280.419 618.518 281.386 602.576C282.778 579.573 293.972 568.496 306.191 563.983C306.352 563.91 306.514 563.851 306.675 563.793C310.147 562.562 313.693 561.844 317.092 561.536C317.107 561.536 317.107 561.536 317.122 561.536C320.682 561.214 324.096 561.317 327.158 561.727C330.118 562.108 332.726 562.767 334.792 563.588C334.997 563.661 335.187 563.749 335.393 563.837C335.949 564.071 336.462 564.32 336.916 564.584C336.125 564.584 335.349 564.599 334.587 564.643C334.426 564.643 334.264 564.643 334.103 564.657C309.649 565.961 302.353 584.144 311.1 605.976C322.074 633.404 357.825 652.276 381.033 672.188C399.641 688.158 417.048 706.708 420.901 727.484C426.762 723.645 433.517 716.026 428.755 702.62C418.147 672.788 389.561 662.693 367.217 635.324C355.436 620.891 354.88 600.774 362.528 591.778C372.74 611.162 441.194 654.049 447.26 693.536C447.831 697.242 448.022 700.598 447.919 703.645Z" fill="url(#paint12_radial_735_2550)" fill-opacity="0.6"/>
<path d="M447.919 703.645C447.626 712.832 444.579 719.206 440.432 723.631C437.941 726.297 435.07 728.261 432.154 729.682L430.777 730.326C430.308 730.532 429.854 730.722 429.385 730.898C426.586 731.997 423.89 732.656 421.59 733.052C421.678 734.458 421.707 735.894 421.663 737.315C421.59 740.202 421.224 743.103 420.55 746.063C420.55 746.063 420.55 746.077 420.55 746.092C420.432 746.575 420.315 747.074 420.183 747.557C419.846 748.832 419.465 750.033 419.026 751.161C418.161 753.418 417.121 755.396 415.905 757.125C413.956 759.865 411.627 762.004 409.033 763.572C408.55 763.865 408.037 764.143 407.539 764.407L406.718 764.802C394.953 770.268 379.246 765.74 371.627 757.183C371.524 757.081 371.422 756.978 371.334 756.861C371.612 757.008 371.891 757.154 372.154 757.301C379.07 760.92 385.282 762.048 390.162 761.389C392.901 761.008 395.216 760.07 397.004 758.693C398.484 757.55 400.022 755.792 400.682 753.227C400.77 752.876 400.857 752.495 400.901 752.099C400.975 751.586 401.019 751.03 401.019 750.458C400.975 743.894 395.612 733.491 375.993 717.506C355.202 700.583 320.199 676.334 299.07 648.862C287.759 634.151 280.419 618.518 281.386 602.576C282.778 579.573 293.972 568.496 306.191 563.983C306.352 563.91 306.514 563.851 306.675 563.793C310.147 562.562 313.693 561.844 317.092 561.536C317.107 561.536 317.107 561.536 317.122 561.536C320.682 561.214 324.096 561.317 327.158 561.727C330.118 562.108 332.726 562.767 334.792 563.588C334.997 563.661 335.187 563.749 335.393 563.837C335.949 564.071 336.462 564.32 336.916 564.584C336.125 564.584 335.349 564.599 334.587 564.643C334.426 564.643 334.264 564.643 334.103 564.657C309.649 565.961 302.353 584.144 311.1 605.976C322.074 633.404 357.825 652.276 381.033 672.188C399.641 688.158 417.048 706.708 420.901 727.484C426.762 723.645 433.517 716.026 428.755 702.62C418.147 672.788 389.561 662.693 367.217 635.324C355.436 620.891 354.88 600.774 362.528 591.778C372.74 611.162 441.194 654.049 447.26 693.536C447.831 697.242 448.022 700.598 447.919 703.645Z" fill="url(#paint13_radial_735_2550)"/>
<path d="M447.919 703.645C447.626 712.832 444.579 719.206 440.432 723.631C437.941 726.297 435.07 728.261 432.154 729.682L430.777 730.326C430.308 730.532 429.854 730.722 429.385 730.898C426.586 731.997 423.89 732.656 421.59 733.052C421.678 734.458 421.707 735.894 421.663 737.315C421.59 740.202 421.224 743.103 420.55 746.063C420.55 746.063 420.55 746.077 420.55 746.092C420.432 746.575 420.315 747.074 420.183 747.557C419.846 748.832 419.465 750.033 419.026 751.161C418.161 753.418 417.121 755.396 415.905 757.125C413.956 759.865 411.627 762.004 409.033 763.572C408.55 763.865 408.037 764.143 407.539 764.407L406.718 764.802C394.953 770.268 379.246 765.74 371.627 757.183C371.524 757.081 371.422 756.978 371.334 756.861C371.612 757.008 371.891 757.154 372.154 757.301C379.07 760.92 385.282 762.048 390.162 761.389C392.901 761.008 395.216 760.07 397.004 758.693C398.484 757.55 400.022 755.792 400.682 753.227C400.77 752.876 400.857 752.495 400.901 752.099C400.975 751.586 401.019 751.03 401.019 750.458C400.975 743.894 395.612 733.491 375.993 717.506C355.202 700.583 320.199 676.334 299.07 648.862C287.759 634.151 280.419 618.518 281.386 602.576C282.778 579.573 293.972 568.496 306.191 563.983C306.352 563.91 306.514 563.851 306.675 563.793C310.147 562.562 313.693 561.844 317.092 561.536C317.107 561.536 317.107 561.536 317.122 561.536C320.682 561.214 324.096 561.317 327.158 561.727C330.118 562.108 332.726 562.767 334.792 563.588C334.997 563.661 335.187 563.749 335.393 563.837C335.949 564.071 336.462 564.32 336.916 564.584C336.125 564.584 335.349 564.599 334.587 564.643C334.426 564.643 334.264 564.643 334.103 564.657C309.649 565.961 302.353 584.144 311.1 605.976C322.074 633.404 357.825 652.276 381.033 672.188C399.641 688.158 417.048 706.708 420.901 727.484C426.762 723.645 433.517 716.026 428.755 702.62C418.147 672.788 389.561 662.693 367.217 635.324C355.436 620.891 354.88 600.774 362.528 591.778C372.74 611.162 441.194 654.049 447.26 693.536C447.831 697.242 448.022 700.598 447.919 703.645Z" fill="url(#paint14_radial_735_2550)"/>
</g>
<path d="M468.312 684.204C462.261 645.099 393.793 602.637 383.595 583.429L362.525 591.795C372.738 611.179 441.192 654.065 447.258 693.552C447.829 697.245 448.019 700.6 447.917 703.648C447.624 712.834 444.576 719.208 440.43 723.633C437.939 726.299 435.067 728.263 432.151 729.684L452.166 720.483C452.562 720.307 452.957 720.116 453.353 719.926H453.367C462.642 715.325 471.609 705.45 468.312 684.204Z" fill="url(#paint15_linear_735_2550)"/>
<path d="M199.222 548.423L399.718 621.477L550.377 531.689L365.785 470.988L199.222 548.423Z" fill="url(#paint16_linear_735_2550)" fill-opacity="0.7"/>
<g opacity="0.8">
<path d="M399.716 863.538L535.39 757.528L550.375 531.934L399.716 621.722V863.538Z" fill="url(#paint17_linear_735_2550)" fill-opacity="0.7"/>
<path d="M399.716 863.538L535.39 757.528L550.375 531.934L399.716 621.722V863.538Z" fill="url(#paint18_radial_735_2550)" fill-opacity="0.6"/>
</g>
</g>
<path d="M199.222 393.614L365.785 471.05L365.89 253.818L214.917 161.295L199.222 393.614Z" fill="url(#paint19_linear_735_2550)" fill-opacity="0.9"/>
<path opacity="0.5" d="M365.889 253.819L214.916 161.297L399.717 78.7466L535.391 184.757L365.889 253.819Z" fill="url(#paint20_linear_735_2550)"/>
<path d="M365.623 253.898L535.126 184.836L550.11 410.429L365.518 471.13L365.623 253.898Z" fill="url(#paint21_linear_735_2550)" fill-opacity="0.6"/>
<path d="M199.221 393.616L399.718 320.562V78.7466L214.917 161.297L199.221 393.616Z" fill="url(#paint22_linear_735_2550)" fill-opacity="0.9"/>
<path d="M199.221 393.616L399.718 320.562V78.7466L214.917 161.297L199.221 393.616Z" fill="url(#paint23_radial_735_2550)" fill-opacity="0.3" style="mix-blend-mode:lighten"/>
<path d="M199.221 393.616L399.718 320.562V78.7466L214.917 161.297L199.221 393.616Z" fill="url(#paint24_radial_735_2550)" fill-opacity="0.6"/>
<path d="M199.222 393.862L399.718 320.809L550.377 410.597L365.785 471.298L199.222 393.862Z" fill="url(#paint25_linear_735_2550)" fill-opacity="0.7"/>
<g opacity="0.8">
<path d="M399.716 78.7466L535.39 184.757L550.375 410.35L399.716 320.562V78.7466Z" fill="url(#paint26_linear_735_2550)" fill-opacity="0.7"/>
<path d="M399.716 78.7466L535.39 184.757L550.375 410.35L399.716 320.562V78.7466Z" fill="url(#paint27_radial_735_2550)" fill-opacity="0.6"/>
</g>
<path d="M692.039 121.255C700.115 137.683 699.132 157.699 690.268 179.922C681.403 202.144 664.688 226.489 641.453 251.473C594.987 301.438 522.562 353.835 435.184 396.788C347.807 439.742 262.084 465.089 194.142 471.367C160.168 474.506 130.682 472.873 107.672 466.319C84.6618 459.766 68.212 448.32 60.1358 431.892C52.0597 415.463 53.0435 395.447 61.9076 373.225C70.7718 351.002 87.4869 326.657 110.722 301.673C157.188 251.709 229.614 199.312 316.991 156.358C404.368 113.404 490.091 88.057 558.033 81.7795C592.007 78.6404 621.493 80.2735 644.503 86.8269C667.513 93.3804 683.963 104.826 692.039 121.255Z" stroke="url(#paint28_angular_735_2550)" stroke-width="1.55273"/>
<g filter="url(#filter1_d_735_2550)">
<ellipse cx="627.852" cy="87.5547" rx="45.579" ry="45.579" transform="rotate(77.7353 627.852 87.5547)" fill="url(#paint29_radial_735_2550)"/>
<ellipse cx="627.852" cy="87.5547" rx="45.579" ry="45.579" transform="rotate(77.7353 627.852 87.5547)" fill="url(#paint30_radial_735_2550)"/>
</g>
<g filter="url(#filter2_df_735_2550)">
<ellipse cx="118.782" cy="468.385" rx="19.5581" ry="19.5581" fill="url(#paint31_radial_735_2550)"/>
</g>
<defs>
<filter id="filter0_f_735_2550" x="33.3069" y="362.749" width="651.196" height="250.052" filterUnits="userSpaceOnUse" color-interpolation-filters="sRGB">
<feFlood flood-opacity="0" result="BackgroundImageFix"/>
<feBlend mode="normal" in="SourceGraphic" in2="BackgroundImageFix" result="shape"/>
<feGaussianBlur stdDeviation="7.76366" result="effect1_foregroundBlur_735_2550"/>
</filter>
<filter id="filter1_d_735_2550" x="549.263" y="9.96606" width="157.177" height="157.177" filterUnits="userSpaceOnUse" color-interpolation-filters="sRGB">
<feFlood flood-opacity="0" result="BackgroundImageFix"/>
<feColorMatrix in="SourceAlpha" type="matrix" values="0 0 0 0 0 0 0 0 0 0 0 0 0 0 0 0 0 0 127 0" result="hardAlpha"/>
<feOffset dy="1"/>
<feGaussianBlur stdDeviation="16.5"/>
<feComposite in2="hardAlpha" operator="out"/>
<feColorMatrix type="matrix" values="0 0 0 0 0.866667 0 0 0 0 0.581389 0 0 0 0 0.803905 0 0 0 0.56 0"/>
<feBlend mode="normal" in2="BackgroundImageFix" result="effect1_dropShadow_735_2550"/>
<feBlend mode="normal" in="SourceGraphic" in2="effect1_dropShadow_735_2550" result="shape"/>
</filter>
<filter id="filter2_df_735_2550" x="76.2244" y="425.827" width="85.1162" height="85.1162" filterUnits="userSpaceOnUse" color-interpolation-filters="sRGB">
<feFlood flood-opacity="0" result="BackgroundImageFix"/>
<feColorMatrix in="SourceAlpha" type="matrix" values="0 0 0 0 0 0 0 0 0 0 0 0 0 0 0 0 0 0 127 0" result="hardAlpha"/>
<feOffset/>
<feGaussianBlur stdDeviation="11.5"/>
<feComposite in2="hardAlpha" operator="out"/>
<feColorMatrix type="matrix" values="0 0 0 0 0.541667 0 0 0 0 0.78 0 0 0 0 1 0 0 0 1 0"/>
<feBlend mode="normal" in2="BackgroundImageFix" result="effect1_dropShadow_735_2550"/>
<feBlend mode="normal" in="SourceGraphic" in2="effect1_dropShadow_735_2550" result="shape"/>
<feGaussianBlur stdDeviation="4" result="effect2_foregroundBlur_735_2550"/>
</filter>
<radialGradient id="paint0_radial_735_2550" cx="0" cy="0" r="1" gradientUnits="userSpaceOnUse" gradientTransform="translate(358.905 487.775) rotate(90) scale(109.499 310.071)">
<stop stop-color="#739AFF"/>
<stop offset="1" stop-color="#6978FF" stop-opacity="0"/>
</radialGradient>
<linearGradient id="paint1_linear_735_2550" x1="365.496" y1="418.122" x2="365.108" y2="689.973" gradientUnits="userSpaceOnUse">
<stop stop-opacity="0.7"/>
<stop offset="0.617677" stop-opacity="0"/>
</linearGradient>
<linearGradient id="paint2_linear_735_2550" x1="321.52" y1="471.236" x2="293.481" y2="664.314" gradientUnits="userSpaceOnUse">
<stop offset="0.0729167" stop-color="#5B76D5" stop-opacity="0.89"/>
<stop offset="0.544349" stop-color="#EBDCFF" stop-opacity="0.37"/>
<stop offset="1" stop-color="white" stop-opacity="0"/>
</linearGradient>
<linearGradient id="paint3_linear_735_2550" x1="559.223" y1="757.45" x2="372.652" y2="645.553" gradientUnits="userSpaceOnUse">
<stop stop-color="#2036AD"/>
<stop offset="0.500621" stop-color="#ABFFB8"/>
<stop offset="1" stop-color="#8DFFFF"/>
</linearGradient>
<linearGradient id="paint4_linear_735_2550" x1="199.221" y1="548.668" x2="448.444" y2="612.414" gradientUnits="userSpaceOnUse">
<stop offset="0.0729167" stop-color="#6083FF" stop-opacity="0.89"/>
<stop offset="0.544349" stop-color="#EBDCFF" stop-opacity="0.37"/>
<stop offset="1" stop-color="white" stop-opacity="0"/>
</linearGradient>
<radialGradient id="paint5_radial_735_2550" cx="0" cy="0" r="1" gradientUnits="userSpaceOnUse" gradientTransform="translate(327.163 747.793) rotate(-96.3951) scale(174.927 114.533)">
<stop stop-color="white"/>
<stop offset="1" stop-color="white" stop-opacity="0"/>
</radialGradient>
<radialGradient id="paint6_radial_735_2550" cx="0" cy="0" r="1" gradientUnits="userSpaceOnUse" gradientTransform="translate(412.984 622.596) rotate(-140.578) scale(170.004 107.145)">
<stop stop-color="#596AFF"/>
<stop offset="0.515625" stop-color="#A45EFF" stop-opacity="0.272189"/>
<stop offset="0.880208" stop-color="#C059FF" stop-opacity="0"/>
</radialGradient>
<linearGradient id="paint7_linear_735_2550" x1="349.18" y1="754.951" x2="400.736" y2="580.8" gradientUnits="userSpaceOnUse">
<stop stop-color="#C4EDFF"/>
<stop offset="1" stop-color="#C1CFFF"/>
</linearGradient>
<linearGradient id="paint8_linear_735_2550" x1="427.715" y1="764.422" x2="259.139" y2="672.779" gradientUnits="userSpaceOnUse">
<stop stop-color="#AEC5FF"/>
<stop offset="0.180056" stop-color="#5410AB" stop-opacity="0.7"/>
<stop offset="0.426995" stop-color="#6683EA" stop-opacity="0.7"/>
<stop offset="0.656864" stop-color="#A0DFF3" stop-opacity="0.787662"/>
<stop offset="0.790004" stop-color="#EBF6FF" stop-opacity="0.9"/>
<stop offset="0.843206" stop-color="#EBF6FF" stop-opacity="0.9"/>
<stop offset="0.990105" stop-color="#87B7FF" stop-opacity="0.6"/>
</linearGradient>
<linearGradient id="paint9_linear_735_2550" x1="341.425" y1="553.296" x2="333.239" y2="568.401" gradientUnits="userSpaceOnUse">
<stop stop-color="white"/>
<stop offset="0.591466" stop-color="#A7E5FF"/>
<stop offset="1" stop-color="#ACBEFF"/>
</linearGradient>
<linearGradient id="paint10_linear_735_2550" x1="437.951" y1="726.003" x2="430.866" y2="550.21" gradientUnits="userSpaceOnUse">
<stop stop-color="white"/>
<stop offset="0.186841" stop-color="#A5E9FF"/>
<stop offset="0.714622" stop-color="#6B79F8" stop-opacity="0.83"/>
<stop offset="0.991074" stop-color="#F3F2FF"/>
</linearGradient>
<linearGradient id="paint11_linear_735_2550" x1="447.946" y1="594.457" x2="372.881" y2="709.781" gradientUnits="userSpaceOnUse">
<stop offset="0.161458" stop-color="white"/>
<stop offset="1" stop-color="white" stop-opacity="0"/>
</linearGradient>
<radialGradient id="paint12_radial_735_2550" cx="0" cy="0" r="1" gradientUnits="userSpaceOnUse" gradientTransform="translate(378.314 762.826) rotate(-23.1923) scale(34.9396 28.2869)">
<stop stop-color="#9278FF"/>
<stop offset="1" stop-color="#9278FF" stop-opacity="0"/>
</radialGradient>
<radialGradient id="paint13_radial_735_2550" cx="0" cy="0" r="1" gradientUnits="userSpaceOnUse" gradientTransform="translate(444.67 719.844) rotate(-138.489) scale(31.6231 25.6019)">
<stop stop-color="white"/>
<stop offset="1" stop-color="white" stop-opacity="0"/>
</radialGradient>
<radialGradient id="paint14_radial_735_2550" cx="0" cy="0" r="1" gradientUnits="userSpaceOnUse" gradientTransform="translate(423.598 740.9) rotate(-164.827) scale(19.9297 20.5759)">
<stop stop-color="white"/>
<stop offset="1" stop-color="white" stop-opacity="0"/>
</radialGradient>
<linearGradient id="paint15_linear_735_2550" x1="469.009" y1="718.564" x2="366.012" y2="710.937" gradientUnits="userSpaceOnUse">
<stop stop-color="#95B8FD"/>
<stop offset="0.265625" stop-color="#5F81EA" stop-opacity="0.7"/>
<stop offset="0.504193" stop-color="#8DCAFF" stop-opacity="0.9"/>
<stop offset="1" stop-color="white"/>
</linearGradient>
<linearGradient id="paint16_linear_735_2550" x1="358.048" y1="572.228" x2="518.946" y2="444.204" gradientUnits="userSpaceOnUse">
<stop stop-color="white" stop-opacity="0.73"/>
<stop offset="0.591466" stop-color="#A7EFFF"/>
<stop offset="1" stop-color="#AEACFF"/>
</linearGradient>
<linearGradient id="paint17_linear_735_2550" x1="352.439" y1="596.778" x2="574.554" y2="687.214" gradientUnits="userSpaceOnUse">
<stop offset="0.046875" stop-color="white"/>
<stop offset="0.427083" stop-color="#F1FAFF"/>
<stop offset="0.994792" stop-color="#3869E6"/>
</linearGradient>
<radialGradient id="paint18_radial_735_2550" cx="0" cy="0" r="1" gradientUnits="userSpaceOnUse" gradientTransform="translate(399.778 624.039) rotate(-50.7443) scale(118.948 79.2651)">
<stop stop-color="#00FFF0"/>
<stop offset="1" stop-color="#00FFF0" stop-opacity="0"/>
</radialGradient>
<linearGradient id="paint19_linear_735_2550" x1="321.52" y1="471.05" x2="293.481" y2="277.971" gradientUnits="userSpaceOnUse">
<stop offset="0.0729167" stop-color="#5B76D5" stop-opacity="0.89"/>
<stop offset="0.544349" stop-color="#EBDCFF" stop-opacity="0.37"/>
<stop offset="1" stop-color="white" stop-opacity="0"/>
</linearGradient>
<linearGradient id="paint20_linear_735_2550" x1="241.614" y1="115.7" x2="444.832" y2="308.616" gradientUnits="userSpaceOnUse">
<stop offset="0.198944" stop-color="#D1F1FF"/>
<stop offset="1" stop-color="#00FF47"/>
</linearGradient>
<linearGradient id="paint21_linear_735_2550" x1="559.223" y1="184.836" x2="372.652" y2="296.732" gradientUnits="userSpaceOnUse">
<stop stop-color="#2036AD"/>
<stop offset="0.500621" stop-color="#ABFFB8"/>
<stop offset="1" stop-color="#8DFFFF"/>
</linearGradient>
<linearGradient id="paint22_linear_735_2550" x1="199.221" y1="393.616" x2="448.444" y2="329.87" gradientUnits="userSpaceOnUse">
<stop offset="0.0729167" stop-color="#6083FF" stop-opacity="0.89"/>
<stop offset="0.544349" stop-color="#EBDCFF" stop-opacity="0.37"/>
<stop offset="1" stop-color="white" stop-opacity="0"/>
</linearGradient>
<radialGradient id="paint23_radial_735_2550" cx="0" cy="0" r="1" gradientUnits="userSpaceOnUse" gradientTransform="translate(327.163 194.491) rotate(96.3951) scale(174.927 114.533)">
<stop stop-color="white"/>
<stop offset="1" stop-color="white" stop-opacity="0"/>
</radialGradient>
<radialGradient id="paint24_radial_735_2550" cx="0" cy="0" r="1" gradientUnits="userSpaceOnUse" gradientTransform="translate(412.984 319.688) rotate(140.578) scale(170.004 107.145)">
<stop stop-color="#596AFF"/>
<stop offset="0.515625" stop-color="#A45EFF" stop-opacity="0.272189"/>
<stop offset="0.880208" stop-color="#C059FF" stop-opacity="0"/>
</radialGradient>
<linearGradient id="paint25_linear_735_2550" x1="375.187" y1="329.062" x2="393.558" y2="455.594" gradientUnits="userSpaceOnUse">
<stop stop-color="white" stop-opacity="0.73"/>
<stop offset="0.591466" stop-color="#A7FAFF"/>
<stop offset="1" stop-color="#8FA8FF"/>
</linearGradient>
<linearGradient id="paint26_linear_735_2550" x1="352.439" y1="345.507" x2="574.554" y2="255.07" gradientUnits="userSpaceOnUse">
<stop offset="0.046875" stop-color="white"/>
<stop offset="0.427083" stop-color="#F1FAFF"/>
<stop offset="0.994792" stop-color="#3869E6"/>
</linearGradient>
<radialGradient id="paint27_radial_735_2550" cx="0" cy="0" r="1" gradientUnits="userSpaceOnUse" gradientTransform="translate(399.778 318.245) rotate(50.7443) scale(118.948 79.2651)">
<stop stop-color="#00FFF0"/>
<stop offset="1" stop-color="#00FFF0" stop-opacity="0"/>
</radialGradient>
<radialGradient id="paint28_angular_735_2550" cx="0" cy="0" r="1" gradientUnits="userSpaceOnUse" gradientTransform="translate(376.088 276.573) rotate(-118.656) scale(135.019 352.321)">
<stop offset="0.0638476" stop-color="white" stop-opacity="0"/>
<stop offset="0.142073" stop-color="#FF71C6" stop-opacity="0.250239"/>
<stop offset="0.463236" stop-color="#9278FF" stop-opacity="0.58"/>
<stop offset="0.865118" stop-color="#ABF8CE"/>
<stop offset="0.949291" stop-color="white" stop-opacity="0"/>
</radialGradient>
<radialGradient id="paint29_radial_735_2550" cx="0" cy="0" r="1" gradientUnits="userSpaceOnUse" gradientTransform="translate(582.04 113.496) rotate(-29.9502) scale(101.524 101.524)">
<stop offset="0.148696" stop-color="white"/>
<stop offset="0.311934" stop-color="#CEEDFF"/>
<stop offset="0.541973" stop-color="#B6B9FF"/>
<stop offset="0.801015" stop-color="#B5FBFF"/>
<stop offset="1" stop-color="#FFF2FB"/>
</radialGradient>
<radialGradient id="paint30_radial_735_2550" cx="0" cy="0" r="1" gradientUnits="userSpaceOnUse" gradientTransform="translate(690.106 139.248) rotate(-126.336) scale(83.4909 83.4909)">
<stop stop-color="#3F52FF"/>
<stop offset="1" stop-color="#8793FF" stop-opacity="0"/>
</radialGradient>
<radialGradient id="paint31_radial_735_2550" cx="0" cy="0" r="1" gradientUnits="userSpaceOnUse" gradientTransform="translate(118.782 468.385) rotate(90) scale(19.5581 19.5581)">
<stop stop-color="#F4EFFF"/>
<stop offset="0.321549" stop-color="#D8FFE1"/>
<stop offset="0.558685" stop-color="#BEE4FF"/>
<stop offset="1" stop-color="#A4CEFF"/>
</radialGradient>
</defs>
</svg>
