<svg width="348" height="329" viewBox="0 0 348 329" fill="none" xmlns="http://www.w3.org/2000/svg">
<g clip-path="url(#clip0_787_4494)">
<g filter="url(#filter0_f_787_4494)">
<ellipse cx="166.159" cy="225.823" rx="143.551" ry="50.694" fill="url(#paint0_radial_787_4494)" fill-opacity="0.2"/>
</g>
<mask id="mask0_787_4494" style="mask-type:alpha" maskUnits="userSpaceOnUse" x="63" y="218" width="213" height="182">
<rect x="63.1631" y="218.049" width="212.097" height="181.951" fill="url(#paint1_linear_787_4494)"/>
</mask>
<g mask="url(#mask0_787_4494)">
<path d="M92.2329 254.017L169.346 218.168L169.394 318.738L99.4994 361.573L92.2329 254.017Z" fill="url(#paint2_linear_787_4494)" fill-opacity="0.9"/>
<path opacity="0.5" d="M169.396 318.735L99.501 361.57L185.057 399.787L247.869 350.709L169.396 318.735Z" fill="url(#paint3_linear_787_4494)"/>
<path d="M169.271 318.698L247.745 350.671L254.682 246.23L169.223 218.128L169.271 318.698Z" fill="url(#paint4_linear_787_4494)" fill-opacity="0.6"/>
<path d="M92.2329 254.013L185.056 287.834V399.786L99.4994 361.568L92.2329 254.013Z" fill="url(#paint5_linear_787_4494)" fill-opacity="0.9"/>
<path d="M92.2329 254.013L185.056 287.834V399.786L99.4994 361.568L92.2329 254.013Z" fill="url(#paint6_radial_787_4494)" fill-opacity="0.3" style="mix-blend-mode:lighten"/>
<path d="M92.2329 254.013L185.056 287.834V399.786L99.4994 361.568L92.2329 254.013Z" fill="url(#paint7_radial_787_4494)" fill-opacity="0.6"/>
<path opacity="0.72" d="M186.161 306.967C175.417 297.837 158.865 289.188 153.785 276.612C151.282 270.432 151.614 264.883 154.904 261.41C155.019 261.281 155.148 261.153 155.277 261.037C157.319 259.097 160.365 257.883 164.435 257.666C164.855 257.646 165.289 257.632 165.737 257.632C165.452 257.469 165.12 257.32 164.753 257.178C163.797 256.798 162.589 256.499 161.219 256.323C156.986 255.773 151.255 256.425 146.805 259.972C143.23 262.835 140.483 267.57 140.028 275.052C139.581 282.364 142.979 289.527 148.216 296.27C157.997 308.866 174.202 319.984 183.828 327.744C191.52 333.951 194.478 338.319 195.217 341.345C195.651 343.136 195.305 344.452 194.702 345.394C194.702 345.394 194.702 345.401 194.702 345.408C194.362 345.923 193.955 346.324 193.555 346.629C192.728 347.26 191.656 347.687 190.387 347.864C189.017 348.047 187.423 347.925 185.659 347.436C184.52 347.117 183.312 346.643 182.051 345.991C181.929 345.923 181.8 345.856 181.671 345.788C181.712 345.842 181.759 345.89 181.807 345.937C182.79 347.029 184.059 347.979 185.503 348.718C185.714 348.834 185.924 348.935 186.141 349.03C188.101 349.939 190.333 350.482 192.551 350.516C194.851 350.556 197.15 350.055 199.124 348.861C201.458 347.457 203.344 345.096 204.286 341.514C207.8 328.199 197.456 316.565 186.161 306.967Z" fill="#6C53D6"/>
<path d="M204.931 334.86C205.073 337.031 204.883 339.249 204.287 341.514C203.344 345.096 201.458 347.457 199.124 348.861C197.15 350.055 194.851 350.556 192.551 350.516C190.333 350.482 188.102 349.939 186.141 349.03C185.924 348.935 185.714 348.834 185.504 348.718C184.059 347.979 182.79 347.029 181.807 345.937C181.759 345.89 181.712 345.842 181.671 345.788C181.8 345.856 181.929 345.923 182.051 345.991C183.313 346.643 184.52 347.117 185.66 347.436C187.423 347.925 189.017 348.047 190.388 347.864C191.656 347.687 192.728 347.26 193.555 346.629C193.956 346.324 194.363 345.923 194.702 345.408C194.702 345.401 194.702 345.394 194.702 345.394C195.305 344.452 195.651 343.136 195.217 341.345C194.478 338.319 191.52 333.951 183.828 327.744C174.203 319.984 157.997 308.866 148.216 296.27C142.979 289.527 139.581 282.364 140.028 275.052C140.483 267.57 143.23 262.835 146.805 259.972C151.255 256.425 156.987 255.773 161.219 256.323C162.59 256.499 163.797 256.798 164.753 257.178C165.12 257.32 165.452 257.469 165.737 257.632C165.289 257.632 164.855 257.646 164.435 257.666C160.365 257.883 157.319 259.097 155.277 261.037C155.148 261.153 155.019 261.281 154.904 261.41C151.614 264.883 151.282 270.432 153.785 276.612C158.866 289.188 175.417 297.837 186.162 306.967C194.776 314.286 202.835 322.799 204.612 332.33C207.325 330.559 210.459 327.073 208.248 320.92C203.337 307.245 190.103 302.619 179.758 290.07C174.304 283.449 174.04 274.224 177.587 270.1C182.309 278.993 214.007 298.651 216.809 316.755C218.966 330.62 209.849 334.026 204.931 334.86Z" fill="url(#paint8_linear_787_4494)"/>
<path opacity="0.7" d="M204.281 341.52C203.338 345.101 201.452 347.462 199.119 348.866C198.868 349.015 198.617 349.158 198.359 349.287L188.672 353.899C188.903 353.777 189.14 353.648 189.364 353.513C190.816 352.631 192.091 351.376 193.075 349.687C193.102 349.639 193.129 349.599 193.149 349.551C193.271 349.327 193.393 349.103 193.509 348.866C193.543 348.798 193.577 348.73 193.61 348.656C193.746 348.364 193.875 348.072 193.99 347.76C194.194 347.238 194.37 346.682 194.526 346.092C195.123 343.806 195.32 341.56 195.177 339.376C195.123 338.508 195.015 337.653 194.859 336.805C193.075 327.187 185.016 318.599 176.401 311.205C165.656 301.987 149.105 293.25 144.025 280.551C139.975 270.444 143.353 262.026 154.674 261.422C154.749 261.416 154.824 261.416 154.898 261.416C151.608 264.889 151.276 270.437 153.779 276.617C158.86 289.193 175.411 297.842 186.156 306.972C197.45 316.571 207.794 328.204 204.281 341.52Z" fill="url(#paint9_linear_787_4494)" fill-opacity="0.7"/>
<path d="M165.732 257.638C165.447 257.476 165.115 257.326 164.749 257.184C163.792 256.804 162.585 256.506 161.215 256.329C158.379 255.956 154.865 256.133 151.521 257.354C151.487 257.367 151.453 257.374 151.426 257.388L150.897 257.591L141.977 261.023C143.591 260.454 145.226 260.121 146.807 259.979H146.814C148.462 259.829 150.042 259.877 151.46 260.067C152.83 260.243 154.038 260.549 154.994 260.928C155.089 260.962 155.177 261.003 155.272 261.044C155.53 261.152 155.768 261.268 155.978 261.39L165.732 257.638Z" fill="url(#paint10_linear_787_4494)" fill-opacity="0.7"/>
<path d="M165.732 257.638C165.447 257.476 165.115 257.326 164.749 257.184C163.792 256.804 162.585 256.506 161.215 256.329C158.379 255.956 154.865 256.133 151.521 257.354C151.487 257.367 151.453 257.374 151.426 257.388L150.897 257.591L141.977 261.023C143.591 260.454 145.226 260.121 146.807 259.979H146.814C148.462 259.829 150.042 259.877 151.46 260.067C152.83 260.243 154.038 260.549 154.994 260.928C155.089 260.962 155.177 261.003 155.272 261.044C155.53 261.152 155.768 261.268 155.978 261.39L165.732 257.638Z" fill="#7386EF" fill-opacity="0.1"/>
<g opacity="0.8">
<path d="M207.368 325.764C207.232 330.017 205.821 332.968 203.902 335.017C202.749 336.251 201.419 337.16 200.069 337.818L199.432 338.117C199.214 338.212 199.004 338.3 198.787 338.381C197.491 338.89 196.243 339.195 195.178 339.378C195.219 340.03 195.233 340.694 195.212 341.352C195.178 342.689 195.009 344.032 194.697 345.402C194.697 345.402 194.697 345.409 194.697 345.416C194.643 345.639 194.588 345.87 194.527 346.094C194.371 346.684 194.195 347.24 193.991 347.763C193.591 348.807 193.109 349.723 192.546 350.523C191.644 351.792 190.566 352.782 189.365 353.508C189.141 353.644 188.904 353.773 188.673 353.895L188.293 354.078C182.846 356.608 175.575 354.512 172.047 350.55C172 350.503 171.952 350.456 171.912 350.401C172.041 350.469 172.169 350.537 172.292 350.605C175.493 352.28 178.369 352.803 180.628 352.497C181.897 352.321 182.968 351.887 183.796 351.249C184.481 350.72 185.193 349.906 185.499 348.719C185.539 348.556 185.58 348.38 185.6 348.197C185.634 347.959 185.655 347.701 185.655 347.437C185.634 344.398 183.152 339.582 174.069 332.181C164.443 324.347 148.238 313.12 138.456 300.402C133.22 293.591 129.821 286.353 130.269 278.973C130.913 268.323 136.096 263.195 141.753 261.106C141.828 261.072 141.902 261.045 141.977 261.018C143.585 260.448 145.226 260.116 146.8 259.973C146.807 259.973 146.807 259.973 146.813 259.973C148.462 259.824 150.042 259.871 151.46 260.061C152.83 260.238 154.038 260.543 154.994 260.923C155.089 260.957 155.177 260.997 155.272 261.038C155.53 261.147 155.767 261.262 155.978 261.384C155.611 261.384 155.252 261.391 154.899 261.411C154.825 261.411 154.75 261.411 154.675 261.418C143.354 262.022 139.976 270.44 144.026 280.547C149.106 293.245 165.657 301.982 176.402 311.201C185.017 318.594 193.076 327.182 194.86 336.801C197.573 335.024 200.7 331.496 198.495 325.289C193.584 311.479 180.35 306.805 170.006 294.134C164.552 287.452 164.294 278.139 167.835 273.974C172.563 282.948 204.254 302.803 207.063 321.084C207.327 322.8 207.415 324.353 207.368 325.764Z" fill="url(#paint11_linear_787_4494)"/>
<path d="M207.368 325.764C207.232 330.017 205.821 332.968 203.902 335.017C202.749 336.251 201.419 337.16 200.069 337.818L199.432 338.117C199.214 338.212 199.004 338.3 198.787 338.381C197.491 338.89 196.243 339.195 195.178 339.378C195.219 340.03 195.233 340.694 195.212 341.352C195.178 342.689 195.009 344.032 194.697 345.402C194.697 345.402 194.697 345.409 194.697 345.416C194.643 345.639 194.588 345.87 194.527 346.094C194.371 346.684 194.195 347.24 193.991 347.763C193.591 348.807 193.109 349.723 192.546 350.523C191.644 351.792 190.566 352.782 189.365 353.508C189.141 353.644 188.904 353.773 188.673 353.895L188.293 354.078C182.846 356.608 175.575 354.512 172.047 350.55C172 350.503 171.952 350.456 171.912 350.401C172.041 350.469 172.169 350.537 172.292 350.605C175.493 352.28 178.369 352.803 180.628 352.497C181.897 352.321 182.968 351.887 183.796 351.249C184.481 350.72 185.193 349.906 185.499 348.719C185.539 348.556 185.58 348.38 185.6 348.197C185.634 347.959 185.655 347.701 185.655 347.437C185.634 344.398 183.152 339.582 174.069 332.181C164.443 324.347 148.238 313.12 138.456 300.402C133.22 293.591 129.821 286.353 130.269 278.973C130.913 268.323 136.096 263.195 141.753 261.106C141.828 261.072 141.902 261.045 141.977 261.018C143.585 260.448 145.226 260.116 146.8 259.973C146.807 259.973 146.807 259.973 146.813 259.973C148.462 259.824 150.042 259.871 151.46 260.061C152.83 260.238 154.038 260.543 154.994 260.923C155.089 260.957 155.177 260.997 155.272 261.038C155.53 261.147 155.767 261.262 155.978 261.384C155.611 261.384 155.252 261.391 154.899 261.411C154.825 261.411 154.75 261.411 154.675 261.418C143.354 262.022 139.976 270.44 144.026 280.547C149.106 293.245 165.657 301.982 176.402 311.201C185.017 318.594 193.076 327.182 194.86 336.801C197.573 335.024 200.7 331.496 198.495 325.289C193.584 311.479 180.35 306.805 170.006 294.134C164.552 287.452 164.294 278.139 167.835 273.974C172.563 282.948 204.254 302.803 207.063 321.084C207.327 322.8 207.415 324.353 207.368 325.764Z" fill="url(#paint12_linear_787_4494)" fill-opacity="0.5"/>
<path d="M207.368 325.764C207.232 330.017 205.821 332.968 203.902 335.017C202.749 336.251 201.419 337.16 200.069 337.818L199.432 338.117C199.214 338.212 199.004 338.3 198.787 338.381C197.491 338.89 196.243 339.195 195.178 339.378C195.219 340.03 195.233 340.694 195.212 341.352C195.178 342.689 195.009 344.032 194.697 345.402C194.697 345.402 194.697 345.409 194.697 345.416C194.643 345.639 194.588 345.87 194.527 346.094C194.371 346.684 194.195 347.24 193.991 347.763C193.591 348.807 193.109 349.723 192.546 350.523C191.644 351.792 190.566 352.782 189.365 353.508C189.141 353.644 188.904 353.773 188.673 353.895L188.293 354.078C182.846 356.608 175.575 354.512 172.047 350.55C172 350.503 171.952 350.456 171.912 350.401C172.041 350.469 172.169 350.537 172.292 350.605C175.493 352.28 178.369 352.803 180.628 352.497C181.897 352.321 182.968 351.887 183.796 351.249C184.481 350.72 185.193 349.906 185.499 348.719C185.539 348.556 185.58 348.38 185.6 348.197C185.634 347.959 185.655 347.701 185.655 347.437C185.634 344.398 183.152 339.582 174.069 332.181C164.443 324.347 148.238 313.12 138.456 300.402C133.22 293.591 129.821 286.353 130.269 278.973C130.913 268.323 136.096 263.195 141.753 261.106C141.828 261.072 141.902 261.045 141.977 261.018C143.585 260.448 145.226 260.116 146.8 259.973C146.807 259.973 146.807 259.973 146.813 259.973C148.462 259.824 150.042 259.871 151.46 260.061C152.83 260.238 154.038 260.543 154.994 260.923C155.089 260.957 155.177 260.997 155.272 261.038C155.53 261.147 155.767 261.262 155.978 261.384C155.611 261.384 155.252 261.391 154.899 261.411C154.825 261.411 154.75 261.411 154.675 261.418C143.354 262.022 139.976 270.44 144.026 280.547C149.106 293.245 165.657 301.982 176.402 311.201C185.017 318.594 193.076 327.182 194.86 336.801C197.573 335.024 200.7 331.496 198.495 325.289C193.584 311.479 180.35 306.805 170.006 294.134C164.552 287.452 164.294 278.139 167.835 273.974C172.563 282.948 204.254 302.803 207.063 321.084C207.327 322.8 207.415 324.353 207.368 325.764Z" fill="url(#paint13_radial_787_4494)" fill-opacity="0.6"/>
<path d="M207.368 325.764C207.232 330.017 205.821 332.968 203.902 335.017C202.749 336.251 201.419 337.16 200.069 337.818L199.432 338.117C199.214 338.212 199.004 338.3 198.787 338.381C197.491 338.89 196.243 339.195 195.178 339.378C195.219 340.03 195.233 340.694 195.212 341.352C195.178 342.689 195.009 344.032 194.697 345.402C194.697 345.402 194.697 345.409 194.697 345.416C194.643 345.639 194.588 345.87 194.527 346.094C194.371 346.684 194.195 347.24 193.991 347.763C193.591 348.807 193.109 349.723 192.546 350.523C191.644 351.792 190.566 352.782 189.365 353.508C189.141 353.644 188.904 353.773 188.673 353.895L188.293 354.078C182.846 356.608 175.575 354.512 172.047 350.55C172 350.503 171.952 350.456 171.912 350.401C172.041 350.469 172.169 350.537 172.292 350.605C175.493 352.28 178.369 352.803 180.628 352.497C181.897 352.321 182.968 351.887 183.796 351.249C184.481 350.72 185.193 349.906 185.499 348.719C185.539 348.556 185.58 348.38 185.6 348.197C185.634 347.959 185.655 347.701 185.655 347.437C185.634 344.398 183.152 339.582 174.069 332.181C164.443 324.347 148.238 313.12 138.456 300.402C133.22 293.591 129.821 286.353 130.269 278.973C130.913 268.323 136.096 263.195 141.753 261.106C141.828 261.072 141.902 261.045 141.977 261.018C143.585 260.448 145.226 260.116 146.8 259.973C146.807 259.973 146.807 259.973 146.813 259.973C148.462 259.824 150.042 259.871 151.46 260.061C152.83 260.238 154.038 260.543 154.994 260.923C155.089 260.957 155.177 260.997 155.272 261.038C155.53 261.147 155.767 261.262 155.978 261.384C155.611 261.384 155.252 261.391 154.899 261.411C154.825 261.411 154.75 261.411 154.675 261.418C143.354 262.022 139.976 270.44 144.026 280.547C149.106 293.245 165.657 301.982 176.402 311.201C185.017 318.594 193.076 327.182 194.86 336.801C197.573 335.024 200.7 331.496 198.495 325.289C193.584 311.479 180.35 306.805 170.006 294.134C164.552 287.452 164.294 278.139 167.835 273.974C172.563 282.948 204.254 302.803 207.063 321.084C207.327 322.8 207.415 324.353 207.368 325.764Z" fill="url(#paint14_radial_787_4494)"/>
<path d="M207.368 325.764C207.232 330.017 205.821 332.968 203.902 335.017C202.749 336.251 201.419 337.16 200.069 337.818L199.432 338.117C199.214 338.212 199.004 338.3 198.787 338.381C197.491 338.89 196.243 339.195 195.178 339.378C195.219 340.03 195.233 340.694 195.212 341.352C195.178 342.689 195.009 344.032 194.697 345.402C194.697 345.402 194.697 345.409 194.697 345.416C194.643 345.639 194.588 345.87 194.527 346.094C194.371 346.684 194.195 347.24 193.991 347.763C193.591 348.807 193.109 349.723 192.546 350.523C191.644 351.792 190.566 352.782 189.365 353.508C189.141 353.644 188.904 353.773 188.673 353.895L188.293 354.078C182.846 356.608 175.575 354.512 172.047 350.55C172 350.503 171.952 350.456 171.912 350.401C172.041 350.469 172.169 350.537 172.292 350.605C175.493 352.28 178.369 352.803 180.628 352.497C181.897 352.321 182.968 351.887 183.796 351.249C184.481 350.72 185.193 349.906 185.499 348.719C185.539 348.556 185.58 348.38 185.6 348.197C185.634 347.959 185.655 347.701 185.655 347.437C185.634 344.398 183.152 339.582 174.069 332.181C164.443 324.347 148.238 313.12 138.456 300.402C133.22 293.591 129.821 286.353 130.269 278.973C130.913 268.323 136.096 263.195 141.753 261.106C141.828 261.072 141.902 261.045 141.977 261.018C143.585 260.448 145.226 260.116 146.8 259.973C146.807 259.973 146.807 259.973 146.813 259.973C148.462 259.824 150.042 259.871 151.46 260.061C152.83 260.238 154.038 260.543 154.994 260.923C155.089 260.957 155.177 260.997 155.272 261.038C155.53 261.147 155.767 261.262 155.978 261.384C155.611 261.384 155.252 261.391 154.899 261.411C154.825 261.411 154.75 261.411 154.675 261.418C143.354 262.022 139.976 270.44 144.026 280.547C149.106 293.245 165.657 301.982 176.402 311.201C185.017 318.594 193.076 327.182 194.86 336.801C197.573 335.024 200.7 331.496 198.495 325.289C193.584 311.479 180.35 306.805 170.006 294.134C164.552 287.452 164.294 278.139 167.835 273.974C172.563 282.948 204.254 302.803 207.063 321.084C207.327 322.8 207.415 324.353 207.368 325.764Z" fill="url(#paint15_radial_787_4494)"/>
</g>
<path d="M216.812 316.763C214.011 298.658 182.312 279 177.591 270.107L167.837 273.98C172.565 282.955 204.257 302.809 207.065 321.09C207.329 322.8 207.418 324.353 207.37 325.764C207.234 330.017 205.823 332.968 203.904 335.017C202.751 336.251 201.421 337.16 200.071 337.818L209.337 333.558C209.52 333.477 209.704 333.389 209.887 333.3H209.893C214.187 331.17 218.339 326.599 216.812 316.763Z" fill="url(#paint16_linear_787_4494)"/>
<path d="M92.2329 253.9L185.056 287.721L254.805 246.153L169.346 218.05L92.2329 253.9Z" fill="url(#paint17_linear_787_4494)" fill-opacity="0.7"/>
<g opacity="0.8">
<path d="M185.057 399.787L247.869 350.708L254.806 246.267L185.057 287.835V399.787Z" fill="url(#paint18_linear_787_4494)" fill-opacity="0.7"/>
<path d="M185.057 399.787L247.869 350.708L254.806 246.267L185.057 287.835V399.787Z" fill="url(#paint19_radial_787_4494)" fill-opacity="0.6"/>
</g>
</g>
<path d="M92.2334 182.23L169.346 218.08L169.395 117.509L99.4998 74.6747L92.2334 182.23Z" fill="url(#paint20_linear_787_4494)" fill-opacity="0.9"/>
<path opacity="0.5" d="M169.396 117.509L99.501 74.6748L185.057 36.4572L247.869 85.536L169.396 117.509Z" fill="url(#paint21_linear_787_4494)"/>
<path d="M169.272 117.546L247.745 85.5726L254.682 190.014L169.223 218.116L169.272 117.546Z" fill="url(#paint22_linear_787_4494)" fill-opacity="0.6"/>
<path d="M92.2334 182.23L185.056 148.409V36.4573L99.4998 74.6749L92.2334 182.23Z" fill="url(#paint23_linear_787_4494)" fill-opacity="0.9"/>
<path d="M92.2334 182.23L185.056 148.409V36.4573L99.4998 74.6749L92.2334 182.23Z" fill="url(#paint24_radial_787_4494)" fill-opacity="0.3" style="mix-blend-mode:lighten"/>
<path d="M92.2334 182.23L185.056 148.409V36.4573L99.4998 74.6749L92.2334 182.23Z" fill="url(#paint25_radial_787_4494)" fill-opacity="0.6"/>
<path d="M92.2334 182.344L185.056 148.523L254.805 190.092L169.346 218.194L92.2334 182.344Z" fill="url(#paint26_linear_787_4494)" fill-opacity="0.7"/>
<g opacity="0.8">
<path d="M185.057 36.4572L247.869 85.5359L254.806 189.977L185.057 148.409V36.4572Z" fill="url(#paint27_linear_787_4494)" fill-opacity="0.7"/>
<path d="M185.057 36.4572L247.869 85.5359L254.806 189.977L185.057 148.409V36.4572Z" fill="url(#paint28_radial_787_4494)" fill-opacity="0.6"/>
</g>
<path d="M320.015 56.3203C323.683 63.7835 323.259 72.9189 319.181 83.1426C315.103 93.3662 307.401 104.594 296.664 116.139C275.194 139.225 241.709 163.455 201.29 183.324C160.871 203.194 121.234 214.91 89.8421 217.81C74.1431 219.261 60.5483 218.503 49.9624 215.488C39.3763 212.473 31.8837 207.229 28.2149 199.766C24.5461 192.303 24.9702 183.167 29.0482 172.944C33.1263 162.72 40.8288 151.492 51.5655 139.947C73.035 116.862 106.52 92.6315 146.939 72.762C187.358 52.8925 226.995 41.1765 258.387 38.276C274.086 36.8255 287.681 37.5837 298.267 40.5986C308.853 43.6136 316.346 48.8572 320.015 56.3203Z" stroke="url(#paint29_angular_787_4494)" stroke-width="1.55273"/>
<g filter="url(#filter1_d_787_4494)">
<ellipse cx="290.67" cy="40.5363" rx="21.1014" ry="21.1014" transform="rotate(77.7353 290.67 40.5363)" fill="url(#paint30_radial_787_4494)"/>
<ellipse cx="290.67" cy="40.5363" rx="21.1014" ry="21.1014" transform="rotate(77.7353 290.67 40.5363)" fill="url(#paint31_radial_787_4494)"/>
</g>
<g filter="url(#filter2_df_787_4494)">
<ellipse cx="54.9926" cy="216.845" rx="9.05466" ry="9.05467" fill="url(#paint32_radial_787_4494)"/>
</g>
</g>
<defs>
<filter id="filter0_f_787_4494" x="7.0801" y="159.602" width="318.157" height="132.443" filterUnits="userSpaceOnUse" color-interpolation-filters="sRGB">
<feFlood flood-opacity="0" result="BackgroundImageFix"/>
<feBlend mode="normal" in="SourceGraphic" in2="BackgroundImageFix" result="shape"/>
<feGaussianBlur stdDeviation="7.76366" result="effect1_foregroundBlur_787_4494"/>
</filter>
<filter id="filter1_d_787_4494" x="236.564" y="-12.5696" width="108.212" height="108.212" filterUnits="userSpaceOnUse" color-interpolation-filters="sRGB">
<feFlood flood-opacity="0" result="BackgroundImageFix"/>
<feColorMatrix in="SourceAlpha" type="matrix" values="0 0 0 0 0 0 0 0 0 0 0 0 0 0 0 0 0 0 127 0" result="hardAlpha"/>
<feOffset dy="1"/>
<feGaussianBlur stdDeviation="16.5"/>
<feComposite in2="hardAlpha" operator="out"/>
<feColorMatrix type="matrix" values="0 0 0 0 0.866667 0 0 0 0 0.581389 0 0 0 0 0.803905 0 0 0 0.56 0"/>
<feBlend mode="normal" in2="BackgroundImageFix" result="effect1_dropShadow_787_4494"/>
<feBlend mode="normal" in="SourceGraphic" in2="effect1_dropShadow_787_4494" result="shape"/>
</filter>
<filter id="filter2_df_787_4494" x="22.938" y="184.791" width="64.1094" height="64.1094" filterUnits="userSpaceOnUse" color-interpolation-filters="sRGB">
<feFlood flood-opacity="0" result="BackgroundImageFix"/>
<feColorMatrix in="SourceAlpha" type="matrix" values="0 0 0 0 0 0 0 0 0 0 0 0 0 0 0 0 0 0 127 0" result="hardAlpha"/>
<feOffset/>
<feGaussianBlur stdDeviation="11.5"/>
<feComposite in2="hardAlpha" operator="out"/>
<feColorMatrix type="matrix" values="0 0 0 0 0.541667 0 0 0 0 0.78 0 0 0 0 1 0 0 0 1 0"/>
<feBlend mode="normal" in2="BackgroundImageFix" result="effect1_dropShadow_787_4494"/>
<feBlend mode="normal" in="SourceGraphic" in2="effect1_dropShadow_787_4494" result="shape"/>
<feGaussianBlur stdDeviation="4" result="effect2_foregroundBlur_787_4494"/>
</filter>
<radialGradient id="paint0_radial_787_4494" cx="0" cy="0" r="1" gradientUnits="userSpaceOnUse" gradientTransform="translate(166.159 225.823) rotate(90) scale(50.694 143.551)">
<stop stop-color="#739AFF"/>
<stop offset="1" stop-color="#6978FF" stop-opacity="0"/>
</radialGradient>
<linearGradient id="paint1_linear_787_4494" x1="169.212" y1="193.575" x2="169.032" y2="319.432" gradientUnits="userSpaceOnUse">
<stop stop-opacity="0.7"/>
<stop offset="0.617677" stop-opacity="0"/>
</linearGradient>
<linearGradient id="paint2_linear_787_4494" x1="148.853" y1="218.168" x2="135.872" y2="307.556" gradientUnits="userSpaceOnUse">
<stop offset="0.0729167" stop-color="#5B76D5" stop-opacity="0.89"/>
<stop offset="0.544349" stop-color="#EBDCFF" stop-opacity="0.37"/>
<stop offset="1" stop-color="white" stop-opacity="0"/>
</linearGradient>
<linearGradient id="paint3_linear_787_4494" x1="111.861" y1="382.679" x2="205.944" y2="293.366" gradientUnits="userSpaceOnUse">
<stop offset="0.198944" stop-color="#D1F1FF"/>
<stop offset="1" stop-color="#00FF47"/>
</linearGradient>
<linearGradient id="paint4_linear_787_4494" x1="258.901" y1="350.671" x2="172.526" y2="298.867" gradientUnits="userSpaceOnUse">
<stop stop-color="#2036AD"/>
<stop offset="0.500621" stop-color="#ABFFB8"/>
<stop offset="1" stop-color="#8DFFFF"/>
</linearGradient>
<linearGradient id="paint5_linear_787_4494" x1="92.2329" y1="254.013" x2="207.614" y2="283.525" gradientUnits="userSpaceOnUse">
<stop offset="0.0729167" stop-color="#6083FF" stop-opacity="0.89"/>
<stop offset="0.544349" stop-color="#EBDCFF" stop-opacity="0.37"/>
<stop offset="1" stop-color="white" stop-opacity="0"/>
</linearGradient>
<radialGradient id="paint6_radial_787_4494" cx="0" cy="0" r="1" gradientUnits="userSpaceOnUse" gradientTransform="translate(151.465 346.2) rotate(-96.3951) scale(80.9846 53.0247)">
<stop stop-color="white"/>
<stop offset="1" stop-color="white" stop-opacity="0"/>
</radialGradient>
<radialGradient id="paint7_radial_787_4494" cx="0" cy="0" r="1" gradientUnits="userSpaceOnUse" gradientTransform="translate(191.197 288.239) rotate(-140.578) scale(78.7054 49.6042)">
<stop stop-color="#596AFF"/>
<stop offset="0.515625" stop-color="#A45EFF" stop-opacity="0.272189"/>
<stop offset="0.880208" stop-color="#C059FF" stop-opacity="0"/>
</radialGradient>
<linearGradient id="paint8_linear_787_4494" x1="161.659" y1="349.516" x2="185.527" y2="268.891" gradientUnits="userSpaceOnUse">
<stop stop-color="#C4EDFF"/>
<stop offset="1" stop-color="#C1CFFF"/>
</linearGradient>
<linearGradient id="paint9_linear_787_4494" x1="198.014" y1="353.899" x2="119.97" y2="311.472" gradientUnits="userSpaceOnUse">
<stop stop-color="#AEC5FF"/>
<stop offset="0.180056" stop-color="#5410AB" stop-opacity="0.7"/>
<stop offset="0.426995" stop-color="#6683EA" stop-opacity="0.7"/>
<stop offset="0.656864" stop-color="#A0DFF3" stop-opacity="0.787662"/>
<stop offset="0.790004" stop-color="#EBF6FF" stop-opacity="0.9"/>
<stop offset="0.843206" stop-color="#EBF6FF" stop-opacity="0.9"/>
<stop offset="0.990105" stop-color="#87B7FF" stop-opacity="0.6"/>
</linearGradient>
<linearGradient id="paint10_linear_787_4494" x1="158.065" y1="256.155" x2="154.275" y2="263.149" gradientUnits="userSpaceOnUse">
<stop stop-color="white"/>
<stop offset="0.591466" stop-color="#A7E5FF"/>
<stop offset="1" stop-color="#ACBEFF"/>
</linearGradient>
<linearGradient id="paint11_linear_787_4494" x1="202.753" y1="336.115" x2="199.473" y2="254.729" gradientUnits="userSpaceOnUse">
<stop stop-color="white"/>
<stop offset="0.186841" stop-color="#A5E9FF"/>
<stop offset="0.714622" stop-color="#6B79F8" stop-opacity="0.83"/>
<stop offset="0.991074" stop-color="#F3F2FF"/>
</linearGradient>
<linearGradient id="paint12_linear_787_4494" x1="207.38" y1="275.214" x2="172.628" y2="328.605" gradientUnits="userSpaceOnUse">
<stop offset="0.161458" stop-color="white"/>
<stop offset="1" stop-color="white" stop-opacity="0"/>
</linearGradient>
<radialGradient id="paint13_radial_787_4494" cx="0" cy="0" r="1" gradientUnits="userSpaceOnUse" gradientTransform="translate(175.143 353.163) rotate(-23.1924) scale(16.1758 13.0958)">
<stop stop-color="#9278FF"/>
<stop offset="1" stop-color="#9278FF" stop-opacity="0"/>
</radialGradient>
<radialGradient id="paint14_radial_787_4494" cx="0" cy="0" r="1" gradientUnits="userSpaceOnUse" gradientTransform="translate(205.864 333.264) rotate(-138.489) scale(14.6403 11.8527)">
<stop stop-color="white"/>
<stop offset="1" stop-color="white" stop-opacity="0"/>
</radialGradient>
<radialGradient id="paint15_radial_787_4494" cx="0" cy="0" r="1" gradientUnits="userSpaceOnUse" gradientTransform="translate(196.108 343.012) rotate(-164.827) scale(9.2267 9.52591)">
<stop stop-color="white"/>
<stop offset="1" stop-color="white" stop-opacity="0"/>
</radialGradient>
<linearGradient id="paint16_linear_787_4494" x1="217.135" y1="332.67" x2="169.451" y2="329.139" gradientUnits="userSpaceOnUse">
<stop stop-color="#95B8FD"/>
<stop offset="0.265625" stop-color="#5F81EA" stop-opacity="0.7"/>
<stop offset="0.504193" stop-color="#8DCAFF" stop-opacity="0.9"/>
<stop offset="1" stop-color="white"/>
</linearGradient>
<linearGradient id="paint17_linear_787_4494" x1="165.763" y1="264.921" x2="240.253" y2="205.65" gradientUnits="userSpaceOnUse">
<stop stop-color="white" stop-opacity="0.73"/>
<stop offset="0.591466" stop-color="#A7EFFF"/>
<stop offset="1" stop-color="#AEACFF"/>
</linearGradient>
<linearGradient id="paint18_linear_787_4494" x1="163.169" y1="276.287" x2="266.001" y2="318.155" gradientUnits="userSpaceOnUse">
<stop offset="0.046875" stop-color="white"/>
<stop offset="0.427083" stop-color="#F1FAFF"/>
<stop offset="0.994792" stop-color="#3869E6"/>
</linearGradient>
<radialGradient id="paint19_radial_787_4494" cx="0" cy="0" r="1" gradientUnits="userSpaceOnUse" gradientTransform="translate(185.086 288.908) rotate(-50.7443) scale(55.0684 36.6968)">
<stop stop-color="#00FFF0"/>
<stop offset="1" stop-color="#00FFF0" stop-opacity="0"/>
</radialGradient>
<linearGradient id="paint20_linear_787_4494" x1="148.853" y1="218.08" x2="135.872" y2="128.692" gradientUnits="userSpaceOnUse">
<stop offset="0.0729167" stop-color="#5B76D5" stop-opacity="0.89"/>
<stop offset="0.544349" stop-color="#EBDCFF" stop-opacity="0.37"/>
<stop offset="1" stop-color="white" stop-opacity="0"/>
</linearGradient>
<linearGradient id="paint21_linear_787_4494" x1="111.861" y1="53.5651" x2="205.944" y2="142.878" gradientUnits="userSpaceOnUse">
<stop offset="0.198944" stop-color="#D1F1FF"/>
<stop offset="1" stop-color="#00FF47"/>
</linearGradient>
<linearGradient id="paint22_linear_787_4494" x1="258.901" y1="85.5726" x2="172.526" y2="137.377" gradientUnits="userSpaceOnUse">
<stop stop-color="#2036AD"/>
<stop offset="0.500621" stop-color="#ABFFB8"/>
<stop offset="1" stop-color="#8DFFFF"/>
</linearGradient>
<linearGradient id="paint23_linear_787_4494" x1="92.2334" y1="182.23" x2="207.614" y2="152.718" gradientUnits="userSpaceOnUse">
<stop offset="0.0729167" stop-color="#6083FF" stop-opacity="0.89"/>
<stop offset="0.544349" stop-color="#EBDCFF" stop-opacity="0.37"/>
<stop offset="1" stop-color="white" stop-opacity="0"/>
</linearGradient>
<radialGradient id="paint24_radial_787_4494" cx="0" cy="0" r="1" gradientUnits="userSpaceOnUse" gradientTransform="translate(151.466 90.0428) rotate(96.3951) scale(80.9846 53.0247)">
<stop stop-color="white"/>
<stop offset="1" stop-color="white" stop-opacity="0"/>
</radialGradient>
<radialGradient id="paint25_radial_787_4494" cx="0" cy="0" r="1" gradientUnits="userSpaceOnUse" gradientTransform="translate(191.197 148.004) rotate(140.578) scale(78.7054 49.6042)">
<stop stop-color="#596AFF"/>
<stop offset="0.515625" stop-color="#A45EFF" stop-opacity="0.272189"/>
<stop offset="0.880208" stop-color="#C059FF" stop-opacity="0"/>
</radialGradient>
<linearGradient id="paint26_linear_787_4494" x1="173.699" y1="152.344" x2="182.204" y2="210.924" gradientUnits="userSpaceOnUse">
<stop stop-color="white" stop-opacity="0.73"/>
<stop offset="0.591466" stop-color="#A7FAFF"/>
<stop offset="1" stop-color="#8FA8FF"/>
</linearGradient>
<linearGradient id="paint27_linear_787_4494" x1="163.169" y1="159.957" x2="266.001" y2="118.089" gradientUnits="userSpaceOnUse">
<stop offset="0.046875" stop-color="white"/>
<stop offset="0.427083" stop-color="#F1FAFF"/>
<stop offset="0.994792" stop-color="#3869E6"/>
</linearGradient>
<radialGradient id="paint28_radial_787_4494" cx="0" cy="0" r="1" gradientUnits="userSpaceOnUse" gradientTransform="translate(185.086 147.336) rotate(50.7443) scale(55.0684 36.6968)">
<stop stop-color="#00FFF0"/>
<stop offset="1" stop-color="#00FFF0" stop-opacity="0"/>
</radialGradient>
<radialGradient id="paint29_angular_787_4494" cx="0" cy="0" r="1" gradientUnits="userSpaceOnUse" gradientTransform="translate(174.115 128.043) rotate(-118.656) scale(62.5087 163.112)">
<stop offset="0.0638476" stop-color="white" stop-opacity="0"/>
<stop offset="0.142073" stop-color="#FF71C6" stop-opacity="0.250239"/>
<stop offset="0.463236" stop-color="#9278FF" stop-opacity="0.58"/>
<stop offset="0.865118" stop-color="#ABF8CE"/>
<stop offset="0.949291" stop-color="white" stop-opacity="0"/>
</radialGradient>
<radialGradient id="paint30_radial_787_4494" cx="0" cy="0" r="1" gradientUnits="userSpaceOnUse" gradientTransform="translate(269.461 52.5463) rotate(-29.9502) scale(47.0021 47.0021)">
<stop offset="0.148696" stop-color="white"/>
<stop offset="0.311934" stop-color="#CEEDFF"/>
<stop offset="0.541973" stop-color="#B6B9FF"/>
<stop offset="0.801015" stop-color="#B5FBFF"/>
<stop offset="1" stop-color="#FFF2FB"/>
</radialGradient>
<radialGradient id="paint31_radial_787_4494" cx="0" cy="0" r="1" gradientUnits="userSpaceOnUse" gradientTransform="translate(319.492 64.4684) rotate(-126.336) scale(38.6533 38.6533)">
<stop stop-color="#3F52FF"/>
<stop offset="1" stop-color="#8793FF" stop-opacity="0"/>
</radialGradient>
<radialGradient id="paint32_radial_787_4494" cx="0" cy="0" r="1" gradientUnits="userSpaceOnUse" gradientTransform="translate(54.9926 216.845) rotate(90) scale(9.05467 9.05466)">
<stop stop-color="#F4EFFF"/>
<stop offset="0.321549" stop-color="#D8FFE1"/>
<stop offset="0.558685" stop-color="#BEE4FF"/>
<stop offset="1" stop-color="#A4CEFF"/>
</radialGradient>
<clipPath id="clip0_787_4494">
<rect width="348" height="329" fill="white"/>
</clipPath>
</defs>
</svg>
