<svg width="115" height="36" viewBox="0 0 115 36" fill="none" xmlns="http://www.w3.org/2000/svg">
<g clip-path="url(#clip0_786_2597)">
<path d="M57.1153 9.50866H52.9805V29.7101H49.1813V9.50866H45.0527V6.28986H57.1153V9.50866Z" fill="#0E00AA"/>
<path d="M58.9898 9.80206L58.9602 8.07552L59.986 7.13837H61.6746L62.7004 8.07552L62.6708 9.80206L61.645 10.7097H59.9776L58.9898 9.80206ZM59.0784 12.1449H62.5611V29.7101H59.0784V12.1449Z" fill="#0E00AA"/>
<path d="M75.776 14.2007V21.7823H68.8867V26.409L69.4122 26.848H71.7847L72.3102 26.409V23.7959H75.776V27.7197L73.4057 29.7101H67.8123L65.4336 27.7197V14.2007L67.8926 12.1512H73.3065L75.776 14.2007ZM71.7361 14.9331H69.4714L68.8867 15.4292V19.1777H72.3102V15.4228L71.7361 14.9331Z" fill="#0E00AA"/>
<path d="M88.8242 14.0467V29.7102H85.3395V15.3574L84.8139 14.9184H82.471L81.9433 15.3574V29.7102H78.4607V12.1154H81.1244L81.7386 13.0526L82.91 12.0901H86.4813L88.8242 14.0467Z" fill="#0E00AA"/>
<path d="M101.415 14.2007V21.7823H94.5338V26.409L95.0615 26.848H97.4318L97.9595 26.409V23.7959H101.415V27.7197L99.0423 29.7101H93.451L91.0786 27.7197V14.2007L93.5397 12.1512H98.9557L101.415 14.2007ZM97.3748 14.9331H95.1206L94.5338 15.4292V19.1777H97.9595V15.4228L97.3748 14.9331Z" fill="#0E00AA"/>
<path d="M110.814 20.5772L114.005 29.7101H110.52L108.559 22.977H108.412L106.451 29.7101H102.966L106.187 20.5772L102.966 12.1344H106.451L108.412 18.1351H108.559L110.52 12.1344H114.005L110.814 20.5772Z" fill="#0E00AA"/>
<path d="M31.1772 31.8377L36.7642 22.1623L35.274 19.583L28.199 31.8377H31.1772Z" fill="#0E00AA"/>
<path d="M5.58701 4.16229L0 13.8377L1.48804 16.417L8.56309 4.16229H5.58701Z" fill="#0E00AA"/>
<path d="M11.9697 19.583L7.64282 27.076L12.795 36H23.969L25.4571 33.4207H19.9587L11.9697 19.583Z" fill="#0E00AA"/>
<path d="M16.8054 2.57927L17.0312 2.97397L24.7944 16.417L29.1192 8.92401L25.4571 2.57927L23.9691 0H12.7951L11.3049 2.57927H16.8033H16.8054Z" fill="#0E00AA"/>
<path d="M31.177 4.16229H28.1988L30.949 8.92402L19.2959 29.1065L20.8726 31.8377H26.3709L36.7619 13.8377L31.177 4.16229Z" fill="#0B5EFE"/>
<path d="M15.8893 4.16229H10.391L10.1904 4.51267L1.48804 19.583L0 22.1623L5.58701 31.8377H8.5652L5.81496 27.076L17.4639 6.89986L15.8893 4.16229Z" fill="#0B5EFE"/>
<path d="M10.1904 4.51263L1.48804 19.583L10.1904 4.51263Z" fill="#0E00AA"/>
</g>
<defs>
<clipPath id="clip0_786_2597">
<rect width="114.005" height="36" fill="white"/>
</clipPath>
</defs>
</svg>
