<svg width="24" height="24" viewBox="0 0 24 24" fill="none" xmlns="http://www.w3.org/2000/svg">
<path d="M14.6845 5.14678H14.6456L14.3832 5.40652C17.0754 6.18574 18.378 7.40262 18.378 7.40262C16.643 6.53509 15.0793 6.10133 13.5157 5.926C12.3858 5.75068 11.2559 5.84288 10.3014 5.926H10.0417C9.43127 5.926 8.13257 6.18574 6.39231 6.88055C5.78582 7.14418 5.43777 7.31691 5.43777 7.31691C5.43777 7.31691 6.73907 6.01561 9.6066 5.32081L9.43127 5.14548C9.43127 5.14548 7.25984 5.06236 4.91569 6.79483C4.91569 6.79483 2.57153 10.8779 2.57153 15.9117C2.57153 15.9117 3.87023 18.1715 7.43257 18.2572C7.43257 18.2572 7.95205 17.565 8.47803 16.9559C6.47803 16.3481 5.69881 15.1325 5.69881 15.1325C5.69881 15.1325 5.87283 15.2182 6.13387 15.3922H6.21179C6.25075 15.3922 6.26894 15.4117 6.28972 15.4312V15.439C6.31049 15.4598 6.32868 15.4779 6.36764 15.4779C6.79621 15.6546 7.22478 15.8286 7.57543 15.9974C8.32534 16.3184 9.10973 16.552 9.91309 16.6935C11.1209 16.8689 12.5053 16.9533 14.0819 16.6935C14.8611 16.5182 15.6404 16.3468 16.4196 15.9987C16.9261 15.739 17.5495 15.4792 18.2339 15.0416C18.2339 15.0416 17.4546 16.2572 15.3702 16.865C15.7988 17.4702 16.4027 18.1637 16.4027 18.1637C19.9663 18.0857 21.3508 15.826 21.4287 15.9221C21.4287 10.8961 19.0715 6.80522 19.0715 6.80522C16.9482 5.2286 14.9611 5.16886 14.6105 5.16886L14.6832 5.14288L14.6845 5.14678ZM14.9027 10.8779C15.8157 10.8779 16.5521 11.6572 16.5521 12.6117C16.5521 13.5728 15.8118 14.352 14.9027 14.352C13.9936 14.352 13.2534 13.5728 13.2534 12.6195C13.2559 11.6585 13.9975 10.8818 14.9027 10.8818V10.8779ZM9.0027 10.8779C9.91179 10.8779 10.6469 11.6572 10.6469 12.6117C10.6469 13.5728 9.9066 14.352 8.99751 14.352C8.08842 14.352 7.34816 13.5728 7.34816 12.6195C7.34816 11.6585 8.08842 10.8818 8.99751 10.8818L9.0027 10.8779Z" fill="#B7B7B7"/>
</svg>
