<svg width="24" height="24" viewBox="0 0 24 24" fill="none" xmlns="http://www.w3.org/2000/svg">
<path d="M21.4284 4.31908L19.9249 5.75999C19.7933 5.86023 19.7307 6.02311 19.7557 6.17973V16.7861C19.7307 16.949 19.7933 17.1119 19.9249 17.2058L21.3971 18.6467V18.9663H14.0046V18.6593L15.527 17.1808C15.6773 17.0304 15.6773 16.9866 15.6773 16.761V8.18448L11.4423 18.9349H10.8722L5.94177 8.18448V15.389C5.89791 15.6897 6.00442 15.9967 6.21742 16.216L8.19711 18.6154V18.9349H2.57129V18.6154L4.55098 16.216C4.76398 15.9967 4.85795 15.6897 4.80783 15.389V7.05681C4.83289 6.82501 4.74519 6.59948 4.56977 6.44286L2.80935 4.31908V3.99957H8.27855L12.501 13.2715L16.2161 4.00584H21.4284V4.31908Z" fill="#B7B7B7"/>
</svg>
