<svg width="24" height="24" viewBox="0 0 24 24" fill="none" xmlns="http://www.w3.org/2000/svg">
<path d="M19.4911 8.10166C19.5016 8.26515 19.5016 8.4356 19.5016 8.60257C19.5016 13.7091 15.6126 19.5913 8.50592 19.5913C6.31444 19.5913 4.28297 18.9547 2.57153 17.859C2.8846 17.8937 3.18376 17.9077 3.50378 17.9077C5.31262 17.9077 6.97536 17.2954 8.30068 16.2588C6.60316 16.224 5.17696 15.1109 4.68996 13.5804C5.28479 13.6673 5.82049 13.6673 6.43271 13.5108C4.66561 13.1525 3.34029 11.5976 3.34029 9.71918V9.67048C3.85163 9.9592 4.45342 10.1366 5.08304 10.161C4.00817 9.44437 3.36116 8.23732 3.36116 6.94679C3.36116 6.22673 3.549 5.56929 3.88642 4.99881C5.78918 7.34334 8.64854 8.87389 11.8523 9.03739C11.3061 6.41109 13.268 4.28571 15.6265 4.28571C16.7396 4.28571 17.7414 4.75183 18.4476 5.50319C19.3207 5.3397 20.1555 5.01272 20.8999 4.57442C20.6112 5.46841 20.006 6.22325 19.2024 6.69981C19.9816 6.61632 20.733 6.40066 21.4287 6.09802C20.9034 6.87026 20.246 7.55553 19.4911 8.10166Z" fill="#B7B7B7"/>
</svg>
